<?xml version="1.0" encoding="utf-8" standalone="no"?>
<!DOCTYPE svg PUBLIC "-//W3C//DTD SVG 1.1//EN"
  "http://www.w3.org/Graphics/SVG/1.1/DTD/svg11.dtd">
<svg xmlns:xlink="http://www.w3.org/1999/xlink" width="715.236312pt" height="163.104104pt" viewBox="0 0 715.236312 163.104104" xmlns="http://www.w3.org/2000/svg" version="1.1">
 <metadata>
  <rdf:RDF xmlns:dc="http://purl.org/dc/elements/1.1/" xmlns:cc="http://creativecommons.org/ns#" xmlns:rdf="http://www.w3.org/1999/02/22-rdf-syntax-ns#">
   <cc:Work>
    <dc:type rdf:resource="http://purl.org/dc/dcmitype/StillImage"/>
    <dc:date>2026-07-17T10:52:49.257248</dc:date>
    <dc:format>image/svg+xml</dc:format>
    <dc:creator>
     <cc:Agent>
      <dc:title>Matplotlib v3.11.0, https://matplotlib.org/</dc:title>
     </cc:Agent>
    </dc:creator>
   </cc:Work>
  </rdf:RDF>
 </metadata>
 <defs>
  <style type="text/css">*{stroke-linejoin: round; stroke-linecap: butt}</style>
 </defs>
 <g id="figure_1">
  <g id="patch_1">
   <path d="M 0 163.104104 
L 715.236312 163.104104 
L 715.236312 0 
L 0 0 
z
" style="fill: #ffffff"/>
  </g>
  <g id="axes_1">
   <g id="patch_2">
    <path d="M 32 155.904104 
L 682.628 155.904104 
L 682.628 49.148 
L 32 49.148 
z
" style="fill: #ffffff"/>
   </g>
   <g id="patch_3">
    <path d="M 35.186749 88.982367 
L 45.809247 88.982367 
L 45.809247 99.604865 
L 35.186749 99.604865 
z
" clip-path="url(#p1203cbb4bd)" style="fill: #9be9a8"/>
   </g>
   <g id="patch_4">
    <path d="M 35.186749 101.19824 
L 45.809247 101.19824 
L 45.809247 111.820738 
L 35.186749 111.820738 
z
" clip-path="url(#p1203cbb4bd)" style="fill: #9be9a8"/>
   </g>
   <g id="patch_5">
    <path d="M 35.186749 113.414113 
L 45.809247 113.414113 
L 45.809247 124.036611 
L 35.186749 124.036611 
z
" clip-path="url(#p1203cbb4bd)" style="fill: #9be9a8"/>
   </g>
   <g id="patch_6">
    <path d="M 35.186749 125.629985 
L 45.809247 125.629985 
L 45.809247 136.252483 
L 35.186749 136.252483 
z
" clip-path="url(#p1203cbb4bd)" style="fill: #9be9a8"/>
   </g>
   <g id="patch_7">
    <path d="M 35.186749 52.334749 
L 45.809247 52.334749 
L 45.809247 62.957247 
L 35.186749 62.957247 
z
" clip-path="url(#p1203cbb4bd)" style="fill: #9be9a8"/>
   </g>
   <g id="patch_8">
    <path d="M 35.186749 64.550622 
L 45.809247 64.550622 
L 45.809247 75.17312 
L 35.186749 75.17312 
z
" clip-path="url(#p1203cbb4bd)" style="fill: #ebedf0"/>
   </g>
   <g id="patch_9">
    <path d="M 35.186749 76.766495 
L 45.809247 76.766495 
L 45.809247 87.388993 
L 35.186749 87.388993 
z
" clip-path="url(#p1203cbb4bd)" style="fill: #9be9a8"/>
   </g>
   <g id="patch_10">
    <path d="M 47.402622 88.982367 
L 58.02512 88.982367 
L 58.02512 99.604865 
L 47.402622 99.604865 
z
" clip-path="url(#p1203cbb4bd)" style="fill: #9be9a8"/>
   </g>
   <g id="patch_11">
    <path d="M 47.402622 101.19824 
L 58.02512 101.19824 
L 58.02512 111.820738 
L 47.402622 111.820738 
z
" clip-path="url(#p1203cbb4bd)" style="fill: #9be9a8"/>
   </g>
   <g id="patch_12">
    <path d="M 47.402622 113.414113 
L 58.02512 113.414113 
L 58.02512 124.036611 
L 47.402622 124.036611 
z
" clip-path="url(#p1203cbb4bd)" style="fill: #9be9a8"/>
   </g>
   <g id="patch_13">
    <path d="M 47.402622 125.629985 
L 58.02512 125.629985 
L 58.02512 136.252483 
L 47.402622 136.252483 
z
" clip-path="url(#p1203cbb4bd)" style="fill: #9be9a8"/>
   </g>
   <g id="patch_14">
    <path d="M 47.402622 52.334749 
L 58.02512 52.334749 
L 58.02512 62.957247 
L 47.402622 62.957247 
z
" clip-path="url(#p1203cbb4bd)" style="fill: #40c463"/>
   </g>
   <g id="patch_15">
    <path d="M 47.402622 64.550622 
L 58.02512 64.550622 
L 58.02512 75.17312 
L 47.402622 75.17312 
z
" clip-path="url(#p1203cbb4bd)" style="fill: #9be9a8"/>
   </g>
   <g id="patch_16">
    <path d="M 47.402622 76.766495 
L 58.02512 76.766495 
L 58.02512 87.388993 
L 47.402622 87.388993 
z
" clip-path="url(#p1203cbb4bd)" style="fill: #9be9a8"/>
   </g>
   <g id="patch_17">
    <path d="M 59.618495 88.982367 
L 70.240993 88.982367 
L 70.240993 99.604865 
L 59.618495 99.604865 
z
" clip-path="url(#p1203cbb4bd)" style="fill: #9be9a8"/>
   </g>
   <g id="patch_18">
    <path d="M 59.618495 101.19824 
L 70.240993 101.19824 
L 70.240993 111.820738 
L 59.618495 111.820738 
z
" clip-path="url(#p1203cbb4bd)" style="fill: #9be9a8"/>
   </g>
   <g id="patch_19">
    <path d="M 59.618495 113.414113 
L 70.240993 113.414113 
L 70.240993 124.036611 
L 59.618495 124.036611 
z
" clip-path="url(#p1203cbb4bd)" style="fill: #9be9a8"/>
   </g>
   <g id="patch_20">
    <path d="M 59.618495 125.629985 
L 70.240993 125.629985 
L 70.240993 136.252483 
L 59.618495 136.252483 
z
" clip-path="url(#p1203cbb4bd)" style="fill: #40c463"/>
   </g>
   <g id="patch_21">
    <path d="M 59.618495 52.334749 
L 70.240993 52.334749 
L 70.240993 62.957247 
L 59.618495 62.957247 
z
" clip-path="url(#p1203cbb4bd)" style="fill: #9be9a8"/>
   </g>
   <g id="patch_22">
    <path d="M 59.618495 64.550622 
L 70.240993 64.550622 
L 70.240993 75.17312 
L 59.618495 75.17312 
z
" clip-path="url(#p1203cbb4bd)" style="fill: #9be9a8"/>
   </g>
   <g id="patch_23">
    <path d="M 59.618495 76.766495 
L 70.240993 76.766495 
L 70.240993 87.388993 
L 59.618495 87.388993 
z
" clip-path="url(#p1203cbb4bd)" style="fill: #9be9a8"/>
   </g>
   <g id="patch_24">
    <path d="M 71.834367 88.982367 
L 82.456865 88.982367 
L 82.456865 99.604865 
L 71.834367 99.604865 
z
" clip-path="url(#p1203cbb4bd)" style="fill: #ebedf0"/>
   </g>
   <g id="patch_25">
    <path d="M 71.834367 101.19824 
L 82.456865 101.19824 
L 82.456865 111.820738 
L 71.834367 111.820738 
z
" clip-path="url(#p1203cbb4bd)" style="fill: #9be9a8"/>
   </g>
   <g id="patch_26">
    <path d="M 71.834367 113.414113 
L 82.456865 113.414113 
L 82.456865 124.036611 
L 71.834367 124.036611 
z
" clip-path="url(#p1203cbb4bd)" style="fill: #9be9a8"/>
   </g>
   <g id="patch_27">
    <path d="M 71.834367 125.629985 
L 82.456865 125.629985 
L 82.456865 136.252483 
L 71.834367 136.252483 
z
" clip-path="url(#p1203cbb4bd)" style="fill: #40c463"/>
   </g>
   <g id="patch_28">
    <path d="M 71.834367 52.334749 
L 82.456865 52.334749 
L 82.456865 62.957247 
L 71.834367 62.957247 
z
" clip-path="url(#p1203cbb4bd)" style="fill: #9be9a8"/>
   </g>
   <g id="patch_29">
    <path d="M 71.834367 64.550622 
L 82.456865 64.550622 
L 82.456865 75.17312 
L 71.834367 75.17312 
z
" clip-path="url(#p1203cbb4bd)" style="fill: #9be9a8"/>
   </g>
   <g id="patch_30">
    <path d="M 71.834367 76.766495 
L 82.456865 76.766495 
L 82.456865 87.388993 
L 71.834367 87.388993 
z
" clip-path="url(#p1203cbb4bd)" style="fill: #9be9a8"/>
   </g>
   <g id="patch_31">
    <path d="M 84.05024 88.982367 
L 94.672738 88.982367 
L 94.672738 99.604865 
L 84.05024 99.604865 
z
" clip-path="url(#p1203cbb4bd)" style="fill: #9be9a8"/>
   </g>
   <g id="patch_32">
    <path d="M 84.05024 101.19824 
L 94.672738 101.19824 
L 94.672738 111.820738 
L 84.05024 111.820738 
z
" clip-path="url(#p1203cbb4bd)" style="fill: #9be9a8"/>
   </g>
   <g id="patch_33">
    <path d="M 84.05024 113.414113 
L 94.672738 113.414113 
L 94.672738 124.036611 
L 84.05024 124.036611 
z
" clip-path="url(#p1203cbb4bd)" style="fill: #9be9a8"/>
   </g>
   <g id="patch_34">
    <path d="M 84.05024 125.629985 
L 94.672738 125.629985 
L 94.672738 136.252483 
L 84.05024 136.252483 
z
" clip-path="url(#p1203cbb4bd)" style="fill: #ebedf0"/>
   </g>
   <g id="patch_35">
    <path d="M 84.05024 52.334749 
L 94.672738 52.334749 
L 94.672738 62.957247 
L 84.05024 62.957247 
z
" clip-path="url(#p1203cbb4bd)" style="fill: #ebedf0"/>
   </g>
   <g id="patch_36">
    <path d="M 84.05024 64.550622 
L 94.672738 64.550622 
L 94.672738 75.17312 
L 84.05024 75.17312 
z
" clip-path="url(#p1203cbb4bd)" style="fill: #9be9a8"/>
   </g>
   <g id="patch_37">
    <path d="M 84.05024 76.766495 
L 94.672738 76.766495 
L 94.672738 87.388993 
L 84.05024 87.388993 
z
" clip-path="url(#p1203cbb4bd)" style="fill: #9be9a8"/>
   </g>
   <g id="patch_38">
    <path d="M 96.266113 88.982367 
L 106.888611 88.982367 
L 106.888611 99.604865 
L 96.266113 99.604865 
z
" clip-path="url(#p1203cbb4bd)" style="fill: #40c463"/>
   </g>
   <g id="patch_39">
    <path d="M 96.266113 101.19824 
L 106.888611 101.19824 
L 106.888611 111.820738 
L 96.266113 111.820738 
z
" clip-path="url(#p1203cbb4bd)" style="fill: #40c463"/>
   </g>
   <g id="patch_40">
    <path d="M 96.266113 113.414113 
L 106.888611 113.414113 
L 106.888611 124.036611 
L 96.266113 124.036611 
z
" clip-path="url(#p1203cbb4bd)" style="fill: #9be9a8"/>
   </g>
   <g id="patch_41">
    <path d="M 96.266113 125.629985 
L 106.888611 125.629985 
L 106.888611 136.252483 
L 96.266113 136.252483 
z
" clip-path="url(#p1203cbb4bd)" style="fill: #40c463"/>
   </g>
   <g id="patch_42">
    <path d="M 96.266113 52.334749 
L 106.888611 52.334749 
L 106.888611 62.957247 
L 96.266113 62.957247 
z
" clip-path="url(#p1203cbb4bd)" style="fill: #9be9a8"/>
   </g>
   <g id="patch_43">
    <path d="M 96.266113 64.550622 
L 106.888611 64.550622 
L 106.888611 75.17312 
L 96.266113 75.17312 
z
" clip-path="url(#p1203cbb4bd)" style="fill: #9be9a8"/>
   </g>
   <g id="patch_44">
    <path d="M 96.266113 76.766495 
L 106.888611 76.766495 
L 106.888611 87.388993 
L 96.266113 87.388993 
z
" clip-path="url(#p1203cbb4bd)" style="fill: #9be9a8"/>
   </g>
   <g id="patch_45">
    <path d="M 108.481985 88.982367 
L 119.104483 88.982367 
L 119.104483 99.604865 
L 108.481985 99.604865 
z
" clip-path="url(#p1203cbb4bd)" style="fill: #9be9a8"/>
   </g>
   <g id="patch_46">
    <path d="M 108.481985 101.19824 
L 119.104483 101.19824 
L 119.104483 111.820738 
L 108.481985 111.820738 
z
" clip-path="url(#p1203cbb4bd)" style="fill: #40c463"/>
   </g>
   <g id="patch_47">
    <path d="M 108.481985 113.414113 
L 119.104483 113.414113 
L 119.104483 124.036611 
L 108.481985 124.036611 
z
" clip-path="url(#p1203cbb4bd)" style="fill: #40c463"/>
   </g>
   <g id="patch_48">
    <path d="M 108.481985 125.629985 
L 119.104483 125.629985 
L 119.104483 136.252483 
L 108.481985 136.252483 
z
" clip-path="url(#p1203cbb4bd)" style="fill: #9be9a8"/>
   </g>
   <g id="patch_49">
    <path d="M 108.481985 52.334749 
L 119.104483 52.334749 
L 119.104483 62.957247 
L 108.481985 62.957247 
z
" clip-path="url(#p1203cbb4bd)" style="fill: #40c463"/>
   </g>
   <g id="patch_50">
    <path d="M 108.481985 64.550622 
L 119.104483 64.550622 
L 119.104483 75.17312 
L 108.481985 75.17312 
z
" clip-path="url(#p1203cbb4bd)" style="fill: #40c463"/>
   </g>
   <g id="patch_51">
    <path d="M 108.481985 76.766495 
L 119.104483 76.766495 
L 119.104483 87.388993 
L 108.481985 87.388993 
z
" clip-path="url(#p1203cbb4bd)" style="fill: #9be9a8"/>
   </g>
   <g id="patch_52">
    <path d="M 120.697858 88.982367 
L 131.320356 88.982367 
L 131.320356 99.604865 
L 120.697858 99.604865 
z
" clip-path="url(#p1203cbb4bd)" style="fill: #9be9a8"/>
   </g>
   <g id="patch_53">
    <path d="M 120.697858 101.19824 
L 131.320356 101.19824 
L 131.320356 111.820738 
L 120.697858 111.820738 
z
" clip-path="url(#p1203cbb4bd)" style="fill: #9be9a8"/>
   </g>
   <g id="patch_54">
    <path d="M 120.697858 113.414113 
L 131.320356 113.414113 
L 131.320356 124.036611 
L 120.697858 124.036611 
z
" clip-path="url(#p1203cbb4bd)" style="fill: #40c463"/>
   </g>
   <g id="patch_55">
    <path d="M 120.697858 125.629985 
L 131.320356 125.629985 
L 131.320356 136.252483 
L 120.697858 136.252483 
z
" clip-path="url(#p1203cbb4bd)" style="fill: #9be9a8"/>
   </g>
   <g id="patch_56">
    <path d="M 120.697858 52.334749 
L 131.320356 52.334749 
L 131.320356 62.957247 
L 120.697858 62.957247 
z
" clip-path="url(#p1203cbb4bd)" style="fill: #30a14e"/>
   </g>
   <g id="patch_57">
    <path d="M 120.697858 64.550622 
L 131.320356 64.550622 
L 131.320356 75.17312 
L 120.697858 75.17312 
z
" clip-path="url(#p1203cbb4bd)" style="fill: #9be9a8"/>
   </g>
   <g id="patch_58">
    <path d="M 120.697858 76.766495 
L 131.320356 76.766495 
L 131.320356 87.388993 
L 120.697858 87.388993 
z
" clip-path="url(#p1203cbb4bd)" style="fill: #9be9a8"/>
   </g>
   <g id="patch_59">
    <path d="M 132.913731 88.982367 
L 143.536229 88.982367 
L 143.536229 99.604865 
L 132.913731 99.604865 
z
" clip-path="url(#p1203cbb4bd)" style="fill: #40c463"/>
   </g>
   <g id="patch_60">
    <path d="M 132.913731 101.19824 
L 143.536229 101.19824 
L 143.536229 111.820738 
L 132.913731 111.820738 
z
" clip-path="url(#p1203cbb4bd)" style="fill: #40c463"/>
   </g>
   <g id="patch_61">
    <path d="M 132.913731 113.414113 
L 143.536229 113.414113 
L 143.536229 124.036611 
L 132.913731 124.036611 
z
" clip-path="url(#p1203cbb4bd)" style="fill: #40c463"/>
   </g>
   <g id="patch_62">
    <path d="M 132.913731 125.629985 
L 143.536229 125.629985 
L 143.536229 136.252483 
L 132.913731 136.252483 
z
" clip-path="url(#p1203cbb4bd)" style="fill: #40c463"/>
   </g>
   <g id="patch_63">
    <path d="M 132.913731 52.334749 
L 143.536229 52.334749 
L 143.536229 62.957247 
L 132.913731 62.957247 
z
" clip-path="url(#p1203cbb4bd)" style="fill: #40c463"/>
   </g>
   <g id="patch_64">
    <path d="M 132.913731 64.550622 
L 143.536229 64.550622 
L 143.536229 75.17312 
L 132.913731 75.17312 
z
" clip-path="url(#p1203cbb4bd)" style="fill: #9be9a8"/>
   </g>
   <g id="patch_65">
    <path d="M 132.913731 76.766495 
L 143.536229 76.766495 
L 143.536229 87.388993 
L 132.913731 87.388993 
z
" clip-path="url(#p1203cbb4bd)" style="fill: #9be9a8"/>
   </g>
   <g id="patch_66">
    <path d="M 145.129603 88.982367 
L 155.752101 88.982367 
L 155.752101 99.604865 
L 145.129603 99.604865 
z
" clip-path="url(#p1203cbb4bd)" style="fill: #9be9a8"/>
   </g>
   <g id="patch_67">
    <path d="M 145.129603 101.19824 
L 155.752101 101.19824 
L 155.752101 111.820738 
L 145.129603 111.820738 
z
" clip-path="url(#p1203cbb4bd)" style="fill: #40c463"/>
   </g>
   <g id="patch_68">
    <path d="M 145.129603 113.414113 
L 155.752101 113.414113 
L 155.752101 124.036611 
L 145.129603 124.036611 
z
" clip-path="url(#p1203cbb4bd)" style="fill: #9be9a8"/>
   </g>
   <g id="patch_69">
    <path d="M 145.129603 125.629985 
L 155.752101 125.629985 
L 155.752101 136.252483 
L 145.129603 136.252483 
z
" clip-path="url(#p1203cbb4bd)" style="fill: #40c463"/>
   </g>
   <g id="patch_70">
    <path d="M 145.129603 52.334749 
L 155.752101 52.334749 
L 155.752101 62.957247 
L 145.129603 62.957247 
z
" clip-path="url(#p1203cbb4bd)" style="fill: #40c463"/>
   </g>
   <g id="patch_71">
    <path d="M 145.129603 64.550622 
L 155.752101 64.550622 
L 155.752101 75.17312 
L 145.129603 75.17312 
z
" clip-path="url(#p1203cbb4bd)" style="fill: #9be9a8"/>
   </g>
   <g id="patch_72">
    <path d="M 145.129603 76.766495 
L 155.752101 76.766495 
L 155.752101 87.388993 
L 145.129603 87.388993 
z
" clip-path="url(#p1203cbb4bd)" style="fill: #40c463"/>
   </g>
   <g id="patch_73">
    <path d="M 157.345476 88.982367 
L 167.967974 88.982367 
L 167.967974 99.604865 
L 157.345476 99.604865 
z
" clip-path="url(#p1203cbb4bd)" style="fill: #40c463"/>
   </g>
   <g id="patch_74">
    <path d="M 157.345476 101.19824 
L 167.967974 101.19824 
L 167.967974 111.820738 
L 157.345476 111.820738 
z
" clip-path="url(#p1203cbb4bd)" style="fill: #30a14e"/>
   </g>
   <g id="patch_75">
    <path d="M 157.345476 113.414113 
L 167.967974 113.414113 
L 167.967974 124.036611 
L 157.345476 124.036611 
z
" clip-path="url(#p1203cbb4bd)" style="fill: #40c463"/>
   </g>
   <g id="patch_76">
    <path d="M 157.345476 125.629985 
L 167.967974 125.629985 
L 167.967974 136.252483 
L 157.345476 136.252483 
z
" clip-path="url(#p1203cbb4bd)" style="fill: #9be9a8"/>
   </g>
   <g id="patch_77">
    <path d="M 157.345476 52.334749 
L 167.967974 52.334749 
L 167.967974 62.957247 
L 157.345476 62.957247 
z
" clip-path="url(#p1203cbb4bd)" style="fill: #9be9a8"/>
   </g>
   <g id="patch_78">
    <path d="M 157.345476 64.550622 
L 167.967974 64.550622 
L 167.967974 75.17312 
L 157.345476 75.17312 
z
" clip-path="url(#p1203cbb4bd)" style="fill: #9be9a8"/>
   </g>
   <g id="patch_79">
    <path d="M 157.345476 76.766495 
L 167.967974 76.766495 
L 167.967974 87.388993 
L 157.345476 87.388993 
z
" clip-path="url(#p1203cbb4bd)" style="fill: #40c463"/>
   </g>
   <g id="patch_80">
    <path d="M 169.561349 88.982367 
L 180.183847 88.982367 
L 180.183847 99.604865 
L 169.561349 99.604865 
z
" clip-path="url(#p1203cbb4bd)" style="fill: #40c463"/>
   </g>
   <g id="patch_81">
    <path d="M 169.561349 101.19824 
L 180.183847 101.19824 
L 180.183847 111.820738 
L 169.561349 111.820738 
z
" clip-path="url(#p1203cbb4bd)" style="fill: #40c463"/>
   </g>
   <g id="patch_82">
    <path d="M 169.561349 113.414113 
L 180.183847 113.414113 
L 180.183847 124.036611 
L 169.561349 124.036611 
z
" clip-path="url(#p1203cbb4bd)" style="fill: #40c463"/>
   </g>
   <g id="patch_83">
    <path d="M 169.561349 125.629985 
L 180.183847 125.629985 
L 180.183847 136.252483 
L 169.561349 136.252483 
z
" clip-path="url(#p1203cbb4bd)" style="fill: #9be9a8"/>
   </g>
   <g id="patch_84">
    <path d="M 169.561349 52.334749 
L 180.183847 52.334749 
L 180.183847 62.957247 
L 169.561349 62.957247 
z
" clip-path="url(#p1203cbb4bd)" style="fill: #40c463"/>
   </g>
   <g id="patch_85">
    <path d="M 169.561349 64.550622 
L 180.183847 64.550622 
L 180.183847 75.17312 
L 169.561349 75.17312 
z
" clip-path="url(#p1203cbb4bd)" style="fill: #9be9a8"/>
   </g>
   <g id="patch_86">
    <path d="M 169.561349 76.766495 
L 180.183847 76.766495 
L 180.183847 87.388993 
L 169.561349 87.388993 
z
" clip-path="url(#p1203cbb4bd)" style="fill: #9be9a8"/>
   </g>
   <g id="patch_87">
    <path d="M 181.777221 88.982367 
L 192.399719 88.982367 
L 192.399719 99.604865 
L 181.777221 99.604865 
z
" clip-path="url(#p1203cbb4bd)" style="fill: #40c463"/>
   </g>
   <g id="patch_88">
    <path d="M 181.777221 101.19824 
L 192.399719 101.19824 
L 192.399719 111.820738 
L 181.777221 111.820738 
z
" clip-path="url(#p1203cbb4bd)" style="fill: #40c463"/>
   </g>
   <g id="patch_89">
    <path d="M 181.777221 113.414113 
L 192.399719 113.414113 
L 192.399719 124.036611 
L 181.777221 124.036611 
z
" clip-path="url(#p1203cbb4bd)" style="fill: #30a14e"/>
   </g>
   <g id="patch_90">
    <path d="M 181.777221 125.629985 
L 192.399719 125.629985 
L 192.399719 136.252483 
L 181.777221 136.252483 
z
" clip-path="url(#p1203cbb4bd)" style="fill: #40c463"/>
   </g>
   <g id="patch_91">
    <path d="M 181.777221 52.334749 
L 192.399719 52.334749 
L 192.399719 62.957247 
L 181.777221 62.957247 
z
" clip-path="url(#p1203cbb4bd)" style="fill: #40c463"/>
   </g>
   <g id="patch_92">
    <path d="M 181.777221 64.550622 
L 192.399719 64.550622 
L 192.399719 75.17312 
L 181.777221 75.17312 
z
" clip-path="url(#p1203cbb4bd)" style="fill: #40c463"/>
   </g>
   <g id="patch_93">
    <path d="M 181.777221 76.766495 
L 192.399719 76.766495 
L 192.399719 87.388993 
L 181.777221 87.388993 
z
" clip-path="url(#p1203cbb4bd)" style="fill: #30a14e"/>
   </g>
   <g id="patch_94">
    <path d="M 193.993094 88.982367 
L 204.615592 88.982367 
L 204.615592 99.604865 
L 193.993094 99.604865 
z
" clip-path="url(#p1203cbb4bd)" style="fill: #30a14e"/>
   </g>
   <g id="patch_95">
    <path d="M 193.993094 101.19824 
L 204.615592 101.19824 
L 204.615592 111.820738 
L 193.993094 111.820738 
z
" clip-path="url(#p1203cbb4bd)" style="fill: #40c463"/>
   </g>
   <g id="patch_96">
    <path d="M 193.993094 113.414113 
L 204.615592 113.414113 
L 204.615592 124.036611 
L 193.993094 124.036611 
z
" clip-path="url(#p1203cbb4bd)" style="fill: #40c463"/>
   </g>
   <g id="patch_97">
    <path d="M 193.993094 125.629985 
L 204.615592 125.629985 
L 204.615592 136.252483 
L 193.993094 136.252483 
z
" clip-path="url(#p1203cbb4bd)" style="fill: #30a14e"/>
   </g>
   <g id="patch_98">
    <path d="M 193.993094 52.334749 
L 204.615592 52.334749 
L 204.615592 62.957247 
L 193.993094 62.957247 
z
" clip-path="url(#p1203cbb4bd)" style="fill: #30a14e"/>
   </g>
   <g id="patch_99">
    <path d="M 193.993094 64.550622 
L 204.615592 64.550622 
L 204.615592 75.17312 
L 193.993094 75.17312 
z
" clip-path="url(#p1203cbb4bd)" style="fill: #30a14e"/>
   </g>
   <g id="patch_100">
    <path d="M 193.993094 76.766495 
L 204.615592 76.766495 
L 204.615592 87.388993 
L 193.993094 87.388993 
z
" clip-path="url(#p1203cbb4bd)" style="fill: #40c463"/>
   </g>
   <g id="patch_101">
    <path d="M 206.208967 88.982367 
L 216.831464 88.982367 
L 216.831464 99.604865 
L 206.208967 99.604865 
z
" clip-path="url(#p1203cbb4bd)" style="fill: #216e39"/>
   </g>
   <g id="patch_102">
    <path d="M 206.208967 101.19824 
L 216.831464 101.19824 
L 216.831464 111.820738 
L 206.208967 111.820738 
z
" clip-path="url(#p1203cbb4bd)" style="fill: #40c463"/>
   </g>
   <g id="patch_103">
    <path d="M 206.208967 113.414113 
L 216.831464 113.414113 
L 216.831464 124.036611 
L 206.208967 124.036611 
z
" clip-path="url(#p1203cbb4bd)" style="fill: #30a14e"/>
   </g>
   <g id="patch_104">
    <path d="M 206.208967 125.629985 
L 216.831464 125.629985 
L 216.831464 136.252483 
L 206.208967 136.252483 
z
" clip-path="url(#p1203cbb4bd)" style="fill: #30a14e"/>
   </g>
   <g id="patch_105">
    <path d="M 206.208967 52.334749 
L 216.831464 52.334749 
L 216.831464 62.957247 
L 206.208967 62.957247 
z
" clip-path="url(#p1203cbb4bd)" style="fill: #40c463"/>
   </g>
   <g id="patch_106">
    <path d="M 206.208967 64.550622 
L 216.831464 64.550622 
L 216.831464 75.17312 
L 206.208967 75.17312 
z
" clip-path="url(#p1203cbb4bd)" style="fill: #40c463"/>
   </g>
   <g id="patch_107">
    <path d="M 206.208967 76.766495 
L 216.831464 76.766495 
L 216.831464 87.388993 
L 206.208967 87.388993 
z
" clip-path="url(#p1203cbb4bd)" style="fill: #40c463"/>
   </g>
   <g id="patch_108">
    <path d="M 218.424839 88.982367 
L 229.047337 88.982367 
L 229.047337 99.604865 
L 218.424839 99.604865 
z
" clip-path="url(#p1203cbb4bd)" style="fill: #30a14e"/>
   </g>
   <g id="patch_109">
    <path d="M 218.424839 101.19824 
L 229.047337 101.19824 
L 229.047337 111.820738 
L 218.424839 111.820738 
z
" clip-path="url(#p1203cbb4bd)" style="fill: #30a14e"/>
   </g>
   <g id="patch_110">
    <path d="M 218.424839 113.414113 
L 229.047337 113.414113 
L 229.047337 124.036611 
L 218.424839 124.036611 
z
" clip-path="url(#p1203cbb4bd)" style="fill: #30a14e"/>
   </g>
   <g id="patch_111">
    <path d="M 218.424839 125.629985 
L 229.047337 125.629985 
L 229.047337 136.252483 
L 218.424839 136.252483 
z
" clip-path="url(#p1203cbb4bd)" style="fill: #9be9a8"/>
   </g>
   <g id="patch_112">
    <path d="M 218.424839 52.334749 
L 229.047337 52.334749 
L 229.047337 62.957247 
L 218.424839 62.957247 
z
" clip-path="url(#p1203cbb4bd)" style="fill: #30a14e"/>
   </g>
   <g id="patch_113">
    <path d="M 218.424839 64.550622 
L 229.047337 64.550622 
L 229.047337 75.17312 
L 218.424839 75.17312 
z
" clip-path="url(#p1203cbb4bd)" style="fill: #30a14e"/>
   </g>
   <g id="patch_114">
    <path d="M 218.424839 76.766495 
L 229.047337 76.766495 
L 229.047337 87.388993 
L 218.424839 87.388993 
z
" clip-path="url(#p1203cbb4bd)" style="fill: #40c463"/>
   </g>
   <g id="patch_115">
    <path d="M 230.640712 88.982367 
L 241.26321 88.982367 
L 241.26321 99.604865 
L 230.640712 99.604865 
z
" clip-path="url(#p1203cbb4bd)" style="fill: #40c463"/>
   </g>
   <g id="patch_116">
    <path d="M 230.640712 101.19824 
L 241.26321 101.19824 
L 241.26321 111.820738 
L 230.640712 111.820738 
z
" clip-path="url(#p1203cbb4bd)" style="fill: #30a14e"/>
   </g>
   <g id="patch_117">
    <path d="M 230.640712 113.414113 
L 241.26321 113.414113 
L 241.26321 124.036611 
L 230.640712 124.036611 
z
" clip-path="url(#p1203cbb4bd)" style="fill: #216e39"/>
   </g>
   <g id="patch_118">
    <path d="M 230.640712 125.629985 
L 241.26321 125.629985 
L 241.26321 136.252483 
L 230.640712 136.252483 
z
" clip-path="url(#p1203cbb4bd)" style="fill: #40c463"/>
   </g>
   <g id="patch_119">
    <path d="M 230.640712 52.334749 
L 241.26321 52.334749 
L 241.26321 62.957247 
L 230.640712 62.957247 
z
" clip-path="url(#p1203cbb4bd)" style="fill: #30a14e"/>
   </g>
   <g id="patch_120">
    <path d="M 230.640712 64.550622 
L 241.26321 64.550622 
L 241.26321 75.17312 
L 230.640712 75.17312 
z
" clip-path="url(#p1203cbb4bd)" style="fill: #216e39"/>
   </g>
   <g id="patch_121">
    <path d="M 230.640712 76.766495 
L 241.26321 76.766495 
L 241.26321 87.388993 
L 230.640712 87.388993 
z
" clip-path="url(#p1203cbb4bd)" style="fill: #30a14e"/>
   </g>
   <g id="patch_122">
    <path d="M 242.856584 88.982367 
L 253.479082 88.982367 
L 253.479082 99.604865 
L 242.856584 99.604865 
z
" clip-path="url(#p1203cbb4bd)" style="fill: #30a14e"/>
   </g>
   <g id="patch_123">
    <path d="M 242.856584 101.19824 
L 253.479082 101.19824 
L 253.479082 111.820738 
L 242.856584 111.820738 
z
" clip-path="url(#p1203cbb4bd)" style="fill: #30a14e"/>
   </g>
   <g id="patch_124">
    <path d="M 242.856584 113.414113 
L 253.479082 113.414113 
L 253.479082 124.036611 
L 242.856584 124.036611 
z
" clip-path="url(#p1203cbb4bd)" style="fill: #40c463"/>
   </g>
   <g id="patch_125">
    <path d="M 242.856584 125.629985 
L 253.479082 125.629985 
L 253.479082 136.252483 
L 242.856584 136.252483 
z
" clip-path="url(#p1203cbb4bd)" style="fill: #30a14e"/>
   </g>
   <g id="patch_126">
    <path d="M 242.856584 52.334749 
L 253.479082 52.334749 
L 253.479082 62.957247 
L 242.856584 62.957247 
z
" clip-path="url(#p1203cbb4bd)" style="fill: #40c463"/>
   </g>
   <g id="patch_127">
    <path d="M 242.856584 64.550622 
L 253.479082 64.550622 
L 253.479082 75.17312 
L 242.856584 75.17312 
z
" clip-path="url(#p1203cbb4bd)" style="fill: #216e39"/>
   </g>
   <g id="patch_128">
    <path d="M 242.856584 76.766495 
L 253.479082 76.766495 
L 253.479082 87.388993 
L 242.856584 87.388993 
z
" clip-path="url(#p1203cbb4bd)" style="fill: #30a14e"/>
   </g>
   <g id="patch_129">
    <path d="M 255.072457 88.982367 
L 265.694955 88.982367 
L 265.694955 99.604865 
L 255.072457 99.604865 
z
" clip-path="url(#p1203cbb4bd)" style="fill: #216e39"/>
   </g>
   <g id="patch_130">
    <path d="M 255.072457 101.19824 
L 265.694955 101.19824 
L 265.694955 111.820738 
L 255.072457 111.820738 
z
" clip-path="url(#p1203cbb4bd)" style="fill: #30a14e"/>
   </g>
   <g id="patch_131">
    <path d="M 255.072457 113.414113 
L 265.694955 113.414113 
L 265.694955 124.036611 
L 255.072457 124.036611 
z
" clip-path="url(#p1203cbb4bd)" style="fill: #216e39"/>
   </g>
   <g id="patch_132">
    <path d="M 255.072457 125.629985 
L 265.694955 125.629985 
L 265.694955 136.252483 
L 255.072457 136.252483 
z
" clip-path="url(#p1203cbb4bd)" style="fill: #40c463"/>
   </g>
   <g id="patch_133">
    <path d="M 255.072457 52.334749 
L 265.694955 52.334749 
L 265.694955 62.957247 
L 255.072457 62.957247 
z
" clip-path="url(#p1203cbb4bd)" style="fill: #30a14e"/>
   </g>
   <g id="patch_134">
    <path d="M 255.072457 64.550622 
L 265.694955 64.550622 
L 265.694955 75.17312 
L 255.072457 75.17312 
z
" clip-path="url(#p1203cbb4bd)" style="fill: #30a14e"/>
   </g>
   <g id="patch_135">
    <path d="M 255.072457 76.766495 
L 265.694955 76.766495 
L 265.694955 87.388993 
L 255.072457 87.388993 
z
" clip-path="url(#p1203cbb4bd)" style="fill: #216e39"/>
   </g>
   <g id="patch_136">
    <path d="M 267.28833 88.982367 
L 277.910828 88.982367 
L 277.910828 99.604865 
L 267.28833 99.604865 
z
" clip-path="url(#p1203cbb4bd)" style="fill: #40c463"/>
   </g>
   <g id="patch_137">
    <path d="M 267.28833 101.19824 
L 277.910828 101.19824 
L 277.910828 111.820738 
L 267.28833 111.820738 
z
" clip-path="url(#p1203cbb4bd)" style="fill: #216e39"/>
   </g>
   <g id="patch_138">
    <path d="M 267.28833 113.414113 
L 277.910828 113.414113 
L 277.910828 124.036611 
L 267.28833 124.036611 
z
" clip-path="url(#p1203cbb4bd)" style="fill: #216e39"/>
   </g>
   <g id="patch_139">
    <path d="M 267.28833 125.629985 
L 277.910828 125.629985 
L 277.910828 136.252483 
L 267.28833 136.252483 
z
" clip-path="url(#p1203cbb4bd)" style="fill: #216e39"/>
   </g>
   <g id="patch_140">
    <path d="M 267.28833 52.334749 
L 277.910828 52.334749 
L 277.910828 62.957247 
L 267.28833 62.957247 
z
" clip-path="url(#p1203cbb4bd)" style="fill: #216e39"/>
   </g>
   <g id="patch_141">
    <path d="M 267.28833 64.550622 
L 277.910828 64.550622 
L 277.910828 75.17312 
L 267.28833 75.17312 
z
" clip-path="url(#p1203cbb4bd)" style="fill: #30a14e"/>
   </g>
   <g id="patch_142">
    <path d="M 267.28833 76.766495 
L 277.910828 76.766495 
L 277.910828 87.388993 
L 267.28833 87.388993 
z
" clip-path="url(#p1203cbb4bd)" style="fill: #30a14e"/>
   </g>
   <g id="patch_143">
    <path d="M 279.504202 88.982367 
L 290.1267 88.982367 
L 290.1267 99.604865 
L 279.504202 99.604865 
z
" clip-path="url(#p1203cbb4bd)" style="fill: #40c463"/>
   </g>
   <g id="patch_144">
    <path d="M 279.504202 101.19824 
L 290.1267 101.19824 
L 290.1267 111.820738 
L 279.504202 111.820738 
z
" clip-path="url(#p1203cbb4bd)" style="fill: #30a14e"/>
   </g>
   <g id="patch_145">
    <path d="M 279.504202 113.414113 
L 290.1267 113.414113 
L 290.1267 124.036611 
L 279.504202 124.036611 
z
" clip-path="url(#p1203cbb4bd)" style="fill: #30a14e"/>
   </g>
   <g id="patch_146">
    <path d="M 279.504202 125.629985 
L 290.1267 125.629985 
L 290.1267 136.252483 
L 279.504202 136.252483 
z
" clip-path="url(#p1203cbb4bd)" style="fill: #216e39"/>
   </g>
   <g id="patch_147">
    <path d="M 279.504202 52.334749 
L 290.1267 52.334749 
L 290.1267 62.957247 
L 279.504202 62.957247 
z
" clip-path="url(#p1203cbb4bd)" style="fill: #30a14e"/>
   </g>
   <g id="patch_148">
    <path d="M 279.504202 64.550622 
L 290.1267 64.550622 
L 290.1267 75.17312 
L 279.504202 75.17312 
z
" clip-path="url(#p1203cbb4bd)" style="fill: #216e39"/>
   </g>
   <g id="patch_149">
    <path d="M 279.504202 76.766495 
L 290.1267 76.766495 
L 290.1267 87.388993 
L 279.504202 87.388993 
z
" clip-path="url(#p1203cbb4bd)" style="fill: #40c463"/>
   </g>
   <g id="patch_150">
    <path d="M 291.720075 88.982367 
L 302.342573 88.982367 
L 302.342573 99.604865 
L 291.720075 99.604865 
z
" clip-path="url(#p1203cbb4bd)" style="fill: #30a14e"/>
   </g>
   <g id="patch_151">
    <path d="M 291.720075 101.19824 
L 302.342573 101.19824 
L 302.342573 111.820738 
L 291.720075 111.820738 
z
" clip-path="url(#p1203cbb4bd)" style="fill: #216e39"/>
   </g>
   <g id="patch_152">
    <path d="M 291.720075 113.414113 
L 302.342573 113.414113 
L 302.342573 124.036611 
L 291.720075 124.036611 
z
" clip-path="url(#p1203cbb4bd)" style="fill: #216e39"/>
   </g>
   <g id="patch_153">
    <path d="M 291.720075 125.629985 
L 302.342573 125.629985 
L 302.342573 136.252483 
L 291.720075 136.252483 
z
" clip-path="url(#p1203cbb4bd)" style="fill: #216e39"/>
   </g>
   <g id="patch_154">
    <path d="M 291.720075 52.334749 
L 302.342573 52.334749 
L 302.342573 62.957247 
L 291.720075 62.957247 
z
" clip-path="url(#p1203cbb4bd)" style="fill: #30a14e"/>
   </g>
   <g id="patch_155">
    <path d="M 291.720075 64.550622 
L 302.342573 64.550622 
L 302.342573 75.17312 
L 291.720075 75.17312 
z
" clip-path="url(#p1203cbb4bd)" style="fill: #30a14e"/>
   </g>
   <g id="patch_156">
    <path d="M 291.720075 76.766495 
L 302.342573 76.766495 
L 302.342573 87.388993 
L 291.720075 87.388993 
z
" clip-path="url(#p1203cbb4bd)" style="fill: #216e39"/>
   </g>
   <g id="patch_157">
    <path d="M 303.935948 88.982367 
L 314.558446 88.982367 
L 314.558446 99.604865 
L 303.935948 99.604865 
z
" clip-path="url(#p1203cbb4bd)" style="fill: #216e39"/>
   </g>
   <g id="patch_158">
    <path d="M 303.935948 101.19824 
L 314.558446 101.19824 
L 314.558446 111.820738 
L 303.935948 111.820738 
z
" clip-path="url(#p1203cbb4bd)" style="fill: #216e39"/>
   </g>
   <g id="patch_159">
    <path d="M 303.935948 113.414113 
L 314.558446 113.414113 
L 314.558446 124.036611 
L 303.935948 124.036611 
z
" clip-path="url(#p1203cbb4bd)" style="fill: #30a14e"/>
   </g>
   <g id="patch_160">
    <path d="M 303.935948 125.629985 
L 314.558446 125.629985 
L 314.558446 136.252483 
L 303.935948 136.252483 
z
" clip-path="url(#p1203cbb4bd)" style="fill: #216e39"/>
   </g>
   <g id="patch_161">
    <path d="M 303.935948 52.334749 
L 314.558446 52.334749 
L 314.558446 62.957247 
L 303.935948 62.957247 
z
" clip-path="url(#p1203cbb4bd)" style="fill: #216e39"/>
   </g>
   <g id="patch_162">
    <path d="M 303.935948 64.550622 
L 314.558446 64.550622 
L 314.558446 75.17312 
L 303.935948 75.17312 
z
" clip-path="url(#p1203cbb4bd)" style="fill: #216e39"/>
   </g>
   <g id="patch_163">
    <path d="M 303.935948 76.766495 
L 314.558446 76.766495 
L 314.558446 87.388993 
L 303.935948 87.388993 
z
" clip-path="url(#p1203cbb4bd)" style="fill: #216e39"/>
   </g>
   <g id="patch_164">
    <path d="M 316.15182 88.982367 
L 326.774318 88.982367 
L 326.774318 99.604865 
L 316.15182 99.604865 
z
" clip-path="url(#p1203cbb4bd)" style="fill: #216e39"/>
   </g>
   <g id="patch_165">
    <path d="M 316.15182 101.19824 
L 326.774318 101.19824 
L 326.774318 111.820738 
L 316.15182 111.820738 
z
" clip-path="url(#p1203cbb4bd)" style="fill: #216e39"/>
   </g>
   <g id="patch_166">
    <path d="M 316.15182 113.414113 
L 326.774318 113.414113 
L 326.774318 124.036611 
L 316.15182 124.036611 
z
" clip-path="url(#p1203cbb4bd)" style="fill: #216e39"/>
   </g>
   <g id="patch_167">
    <path d="M 316.15182 125.629985 
L 326.774318 125.629985 
L 326.774318 136.252483 
L 316.15182 136.252483 
z
" clip-path="url(#p1203cbb4bd)" style="fill: #216e39"/>
   </g>
   <g id="patch_168">
    <path d="M 316.15182 52.334749 
L 326.774318 52.334749 
L 326.774318 62.957247 
L 316.15182 62.957247 
z
" clip-path="url(#p1203cbb4bd)" style="fill: #30a14e"/>
   </g>
   <g id="patch_169">
    <path d="M 316.15182 64.550622 
L 326.774318 64.550622 
L 326.774318 75.17312 
L 316.15182 75.17312 
z
" clip-path="url(#p1203cbb4bd)" style="fill: #216e39"/>
   </g>
   <g id="patch_170">
    <path d="M 316.15182 76.766495 
L 326.774318 76.766495 
L 326.774318 87.388993 
L 316.15182 87.388993 
z
" clip-path="url(#p1203cbb4bd)" style="fill: #216e39"/>
   </g>
   <g id="patch_171">
    <path d="M 328.367693 88.982367 
L 338.990191 88.982367 
L 338.990191 99.604865 
L 328.367693 99.604865 
z
" clip-path="url(#p1203cbb4bd)" style="fill: #216e39"/>
   </g>
   <g id="patch_172">
    <path d="M 328.367693 101.19824 
L 338.990191 101.19824 
L 338.990191 111.820738 
L 328.367693 111.820738 
z
" clip-path="url(#p1203cbb4bd)" style="fill: #216e39"/>
   </g>
   <g id="patch_173">
    <path d="M 328.367693 113.414113 
L 338.990191 113.414113 
L 338.990191 124.036611 
L 328.367693 124.036611 
z
" clip-path="url(#p1203cbb4bd)" style="fill: #216e39"/>
   </g>
   <g id="patch_174">
    <path d="M 328.367693 125.629985 
L 338.990191 125.629985 
L 338.990191 136.252483 
L 328.367693 136.252483 
z
" clip-path="url(#p1203cbb4bd)" style="fill: #30a14e"/>
   </g>
   <g id="patch_175">
    <path d="M 328.367693 52.334749 
L 338.990191 52.334749 
L 338.990191 62.957247 
L 328.367693 62.957247 
z
" clip-path="url(#p1203cbb4bd)" style="fill: #40c463"/>
   </g>
   <g id="patch_176">
    <path d="M 328.367693 64.550622 
L 338.990191 64.550622 
L 338.990191 75.17312 
L 328.367693 75.17312 
z
" clip-path="url(#p1203cbb4bd)" style="fill: #216e39"/>
   </g>
   <g id="patch_177">
    <path d="M 328.367693 76.766495 
L 338.990191 76.766495 
L 338.990191 87.388993 
L 328.367693 87.388993 
z
" clip-path="url(#p1203cbb4bd)" style="fill: #216e39"/>
   </g>
   <g id="patch_178">
    <path d="M 340.583566 88.982367 
L 351.206064 88.982367 
L 351.206064 99.604865 
L 340.583566 99.604865 
z
" clip-path="url(#p1203cbb4bd)" style="fill: #30a14e"/>
   </g>
   <g id="patch_179">
    <path d="M 340.583566 101.19824 
L 351.206064 101.19824 
L 351.206064 111.820738 
L 340.583566 111.820738 
z
" clip-path="url(#p1203cbb4bd)" style="fill: #216e39"/>
   </g>
   <g id="patch_180">
    <path d="M 340.583566 113.414113 
L 351.206064 113.414113 
L 351.206064 124.036611 
L 340.583566 124.036611 
z
" clip-path="url(#p1203cbb4bd)" style="fill: #216e39"/>
   </g>
   <g id="patch_181">
    <path d="M 340.583566 125.629985 
L 351.206064 125.629985 
L 351.206064 136.252483 
L 340.583566 136.252483 
z
" clip-path="url(#p1203cbb4bd)" style="fill: #30a14e"/>
   </g>
   <g id="patch_182">
    <path d="M 340.583566 52.334749 
L 351.206064 52.334749 
L 351.206064 62.957247 
L 340.583566 62.957247 
z
" clip-path="url(#p1203cbb4bd)" style="fill: #216e39"/>
   </g>
   <g id="patch_183">
    <path d="M 340.583566 64.550622 
L 351.206064 64.550622 
L 351.206064 75.17312 
L 340.583566 75.17312 
z
" clip-path="url(#p1203cbb4bd)" style="fill: #216e39"/>
   </g>
   <g id="patch_184">
    <path d="M 340.583566 76.766495 
L 351.206064 76.766495 
L 351.206064 87.388993 
L 340.583566 87.388993 
z
" clip-path="url(#p1203cbb4bd)" style="fill: #30a14e"/>
   </g>
   <g id="patch_185">
    <path d="M 352.799438 88.982367 
L 363.421936 88.982367 
L 363.421936 99.604865 
L 352.799438 99.604865 
z
" clip-path="url(#p1203cbb4bd)" style="fill: #216e39"/>
   </g>
   <g id="patch_186">
    <path d="M 352.799438 101.19824 
L 363.421936 101.19824 
L 363.421936 111.820738 
L 352.799438 111.820738 
z
" clip-path="url(#p1203cbb4bd)" style="fill: #216e39"/>
   </g>
   <g id="patch_187">
    <path d="M 352.799438 113.414113 
L 363.421936 113.414113 
L 363.421936 124.036611 
L 352.799438 124.036611 
z
" clip-path="url(#p1203cbb4bd)" style="fill: #30a14e"/>
   </g>
   <g id="patch_188">
    <path d="M 352.799438 125.629985 
L 363.421936 125.629985 
L 363.421936 136.252483 
L 352.799438 136.252483 
z
" clip-path="url(#p1203cbb4bd)" style="fill: #216e39"/>
   </g>
   <g id="patch_189">
    <path d="M 352.799438 52.334749 
L 363.421936 52.334749 
L 363.421936 62.957247 
L 352.799438 62.957247 
z
" clip-path="url(#p1203cbb4bd)" style="fill: #216e39"/>
   </g>
   <g id="patch_190">
    <path d="M 352.799438 64.550622 
L 363.421936 64.550622 
L 363.421936 75.17312 
L 352.799438 75.17312 
z
" clip-path="url(#p1203cbb4bd)" style="fill: #30a14e"/>
   </g>
   <g id="patch_191">
    <path d="M 352.799438 76.766495 
L 363.421936 76.766495 
L 363.421936 87.388993 
L 352.799438 87.388993 
z
" clip-path="url(#p1203cbb4bd)" style="fill: #216e39"/>
   </g>
   <g id="patch_192">
    <path d="M 365.015311 88.982367 
L 375.637809 88.982367 
L 375.637809 99.604865 
L 365.015311 99.604865 
z
" clip-path="url(#p1203cbb4bd)" style="fill: #216e39"/>
   </g>
   <g id="patch_193">
    <path d="M 365.015311 101.19824 
L 375.637809 101.19824 
L 375.637809 111.820738 
L 365.015311 111.820738 
z
" clip-path="url(#p1203cbb4bd)" style="fill: #30a14e"/>
   </g>
   <g id="patch_194">
    <path d="M 365.015311 113.414113 
L 375.637809 113.414113 
L 375.637809 124.036611 
L 365.015311 124.036611 
z
" clip-path="url(#p1203cbb4bd)" style="fill: #216e39"/>
   </g>
   <g id="patch_195">
    <path d="M 365.015311 125.629985 
L 375.637809 125.629985 
L 375.637809 136.252483 
L 365.015311 136.252483 
z
" clip-path="url(#p1203cbb4bd)" style="fill: #216e39"/>
   </g>
   <g id="patch_196">
    <path d="M 365.015311 52.334749 
L 375.637809 52.334749 
L 375.637809 62.957247 
L 365.015311 62.957247 
z
" clip-path="url(#p1203cbb4bd)" style="fill: #216e39"/>
   </g>
   <g id="patch_197">
    <path d="M 365.015311 64.550622 
L 375.637809 64.550622 
L 375.637809 75.17312 
L 365.015311 75.17312 
z
" clip-path="url(#p1203cbb4bd)" style="fill: #40c463"/>
   </g>
   <g id="patch_198">
    <path d="M 365.015311 76.766495 
L 375.637809 76.766495 
L 375.637809 87.388993 
L 365.015311 87.388993 
z
" clip-path="url(#p1203cbb4bd)" style="fill: #216e39"/>
   </g>
   <g id="patch_199">
    <path d="M 377.231184 88.982367 
L 387.853682 88.982367 
L 387.853682 99.604865 
L 377.231184 99.604865 
z
" clip-path="url(#p1203cbb4bd)" style="fill: #216e39"/>
   </g>
   <g id="patch_200">
    <path d="M 377.231184 101.19824 
L 387.853682 101.19824 
L 387.853682 111.820738 
L 377.231184 111.820738 
z
" clip-path="url(#p1203cbb4bd)" style="fill: #216e39"/>
   </g>
   <g id="patch_201">
    <path d="M 377.231184 113.414113 
L 387.853682 113.414113 
L 387.853682 124.036611 
L 377.231184 124.036611 
z
" clip-path="url(#p1203cbb4bd)" style="fill: #216e39"/>
   </g>
   <g id="patch_202">
    <path d="M 377.231184 125.629985 
L 387.853682 125.629985 
L 387.853682 136.252483 
L 377.231184 136.252483 
z
" clip-path="url(#p1203cbb4bd)" style="fill: #216e39"/>
   </g>
   <g id="patch_203">
    <path d="M 377.231184 52.334749 
L 387.853682 52.334749 
L 387.853682 62.957247 
L 377.231184 62.957247 
z
" clip-path="url(#p1203cbb4bd)" style="fill: #216e39"/>
   </g>
   <g id="patch_204">
    <path d="M 377.231184 64.550622 
L 387.853682 64.550622 
L 387.853682 75.17312 
L 377.231184 75.17312 
z
" clip-path="url(#p1203cbb4bd)" style="fill: #30a14e"/>
   </g>
   <g id="patch_205">
    <path d="M 377.231184 76.766495 
L 387.853682 76.766495 
L 387.853682 87.388993 
L 377.231184 87.388993 
z
" clip-path="url(#p1203cbb4bd)" style="fill: #216e39"/>
   </g>
   <g id="patch_206">
    <path d="M 389.447056 88.982367 
L 400.069554 88.982367 
L 400.069554 99.604865 
L 389.447056 99.604865 
z
" clip-path="url(#p1203cbb4bd)" style="fill: #30a14e"/>
   </g>
   <g id="patch_207">
    <path d="M 389.447056 101.19824 
L 400.069554 101.19824 
L 400.069554 111.820738 
L 389.447056 111.820738 
z
" clip-path="url(#p1203cbb4bd)" style="fill: #30a14e"/>
   </g>
   <g id="patch_208">
    <path d="M 389.447056 113.414113 
L 400.069554 113.414113 
L 400.069554 124.036611 
L 389.447056 124.036611 
z
" clip-path="url(#p1203cbb4bd)" style="fill: #216e39"/>
   </g>
   <g id="patch_209">
    <path d="M 389.447056 125.629985 
L 400.069554 125.629985 
L 400.069554 136.252483 
L 389.447056 136.252483 
z
" clip-path="url(#p1203cbb4bd)" style="fill: #216e39"/>
   </g>
   <g id="patch_210">
    <path d="M 389.447056 52.334749 
L 400.069554 52.334749 
L 400.069554 62.957247 
L 389.447056 62.957247 
z
" clip-path="url(#p1203cbb4bd)" style="fill: #216e39"/>
   </g>
   <g id="patch_211">
    <path d="M 389.447056 64.550622 
L 400.069554 64.550622 
L 400.069554 75.17312 
L 389.447056 75.17312 
z
" clip-path="url(#p1203cbb4bd)" style="fill: #40c463"/>
   </g>
   <g id="patch_212">
    <path d="M 389.447056 76.766495 
L 400.069554 76.766495 
L 400.069554 87.388993 
L 389.447056 87.388993 
z
" clip-path="url(#p1203cbb4bd)" style="fill: #216e39"/>
   </g>
   <g id="patch_213">
    <path d="M 401.662929 88.982367 
L 412.285427 88.982367 
L 412.285427 99.604865 
L 401.662929 99.604865 
z
" clip-path="url(#p1203cbb4bd)" style="fill: #216e39"/>
   </g>
   <g id="patch_214">
    <path d="M 401.662929 101.19824 
L 412.285427 101.19824 
L 412.285427 111.820738 
L 401.662929 111.820738 
z
" clip-path="url(#p1203cbb4bd)" style="fill: #216e39"/>
   </g>
   <g id="patch_215">
    <path d="M 401.662929 113.414113 
L 412.285427 113.414113 
L 412.285427 124.036611 
L 401.662929 124.036611 
z
" clip-path="url(#p1203cbb4bd)" style="fill: #30a14e"/>
   </g>
   <g id="patch_216">
    <path d="M 401.662929 125.629985 
L 412.285427 125.629985 
L 412.285427 136.252483 
L 401.662929 136.252483 
z
" clip-path="url(#p1203cbb4bd)" style="fill: #216e39"/>
   </g>
   <g id="patch_217">
    <path d="M 401.662929 52.334749 
L 412.285427 52.334749 
L 412.285427 62.957247 
L 401.662929 62.957247 
z
" clip-path="url(#p1203cbb4bd)" style="fill: #216e39"/>
   </g>
   <g id="patch_218">
    <path d="M 401.662929 64.550622 
L 412.285427 64.550622 
L 412.285427 75.17312 
L 401.662929 75.17312 
z
" clip-path="url(#p1203cbb4bd)" style="fill: #30a14e"/>
   </g>
   <g id="patch_219">
    <path d="M 401.662929 76.766495 
L 412.285427 76.766495 
L 412.285427 87.388993 
L 401.662929 87.388993 
z
" clip-path="url(#p1203cbb4bd)" style="fill: #30a14e"/>
   </g>
   <g id="patch_220">
    <path d="M 413.878802 88.982367 
L 424.5013 88.982367 
L 424.5013 99.604865 
L 413.878802 99.604865 
z
" clip-path="url(#p1203cbb4bd)" style="fill: #30a14e"/>
   </g>
   <g id="patch_221">
    <path d="M 413.878802 101.19824 
L 424.5013 101.19824 
L 424.5013 111.820738 
L 413.878802 111.820738 
z
" clip-path="url(#p1203cbb4bd)" style="fill: #216e39"/>
   </g>
   <g id="patch_222">
    <path d="M 413.878802 113.414113 
L 424.5013 113.414113 
L 424.5013 124.036611 
L 413.878802 124.036611 
z
" clip-path="url(#p1203cbb4bd)" style="fill: #216e39"/>
   </g>
   <g id="patch_223">
    <path d="M 413.878802 125.629985 
L 424.5013 125.629985 
L 424.5013 136.252483 
L 413.878802 136.252483 
z
" clip-path="url(#p1203cbb4bd)" style="fill: #216e39"/>
   </g>
   <g id="patch_224">
    <path d="M 413.878802 52.334749 
L 424.5013 52.334749 
L 424.5013 62.957247 
L 413.878802 62.957247 
z
" clip-path="url(#p1203cbb4bd)" style="fill: #216e39"/>
   </g>
   <g id="patch_225">
    <path d="M 413.878802 64.550622 
L 424.5013 64.550622 
L 424.5013 75.17312 
L 413.878802 75.17312 
z
" clip-path="url(#p1203cbb4bd)" style="fill: #40c463"/>
   </g>
   <g id="patch_226">
    <path d="M 413.878802 76.766495 
L 424.5013 76.766495 
L 424.5013 87.388993 
L 413.878802 87.388993 
z
" clip-path="url(#p1203cbb4bd)" style="fill: #30a14e"/>
   </g>
   <g id="patch_227">
    <path d="M 426.094674 88.982367 
L 436.717172 88.982367 
L 436.717172 99.604865 
L 426.094674 99.604865 
z
" clip-path="url(#p1203cbb4bd)" style="fill: #216e39"/>
   </g>
   <g id="patch_228">
    <path d="M 426.094674 101.19824 
L 436.717172 101.19824 
L 436.717172 111.820738 
L 426.094674 111.820738 
z
" clip-path="url(#p1203cbb4bd)" style="fill: #216e39"/>
   </g>
   <g id="patch_229">
    <path d="M 426.094674 113.414113 
L 436.717172 113.414113 
L 436.717172 124.036611 
L 426.094674 124.036611 
z
" clip-path="url(#p1203cbb4bd)" style="fill: #40c463"/>
   </g>
   <g id="patch_230">
    <path d="M 426.094674 125.629985 
L 436.717172 125.629985 
L 436.717172 136.252483 
L 426.094674 136.252483 
z
" clip-path="url(#p1203cbb4bd)" style="fill: #216e39"/>
   </g>
   <g id="patch_231">
    <path d="M 426.094674 52.334749 
L 436.717172 52.334749 
L 436.717172 62.957247 
L 426.094674 62.957247 
z
" clip-path="url(#p1203cbb4bd)" style="fill: #216e39"/>
   </g>
   <g id="patch_232">
    <path d="M 426.094674 64.550622 
L 436.717172 64.550622 
L 436.717172 75.17312 
L 426.094674 75.17312 
z
" clip-path="url(#p1203cbb4bd)" style="fill: #216e39"/>
   </g>
   <g id="patch_233">
    <path d="M 426.094674 76.766495 
L 436.717172 76.766495 
L 436.717172 87.388993 
L 426.094674 87.388993 
z
" clip-path="url(#p1203cbb4bd)" style="fill: #216e39"/>
   </g>
   <g id="patch_234">
    <path d="M 438.310547 88.982367 
L 448.933045 88.982367 
L 448.933045 99.604865 
L 438.310547 99.604865 
z
" clip-path="url(#p1203cbb4bd)" style="fill: #216e39"/>
   </g>
   <g id="patch_235">
    <path d="M 438.310547 101.19824 
L 448.933045 101.19824 
L 448.933045 111.820738 
L 438.310547 111.820738 
z
" clip-path="url(#p1203cbb4bd)" style="fill: #30a14e"/>
   </g>
   <g id="patch_236">
    <path d="M 438.310547 113.414113 
L 448.933045 113.414113 
L 448.933045 124.036611 
L 438.310547 124.036611 
z
" clip-path="url(#p1203cbb4bd)" style="fill: #30a14e"/>
   </g>
   <g id="patch_237">
    <path d="M 438.310547 125.629985 
L 448.933045 125.629985 
L 448.933045 136.252483 
L 438.310547 136.252483 
z
" clip-path="url(#p1203cbb4bd)" style="fill: #216e39"/>
   </g>
   <g id="patch_238">
    <path d="M 438.310547 52.334749 
L 448.933045 52.334749 
L 448.933045 62.957247 
L 438.310547 62.957247 
z
" clip-path="url(#p1203cbb4bd)" style="fill: #216e39"/>
   </g>
   <g id="patch_239">
    <path d="M 438.310547 64.550622 
L 448.933045 64.550622 
L 448.933045 75.17312 
L 438.310547 75.17312 
z
" clip-path="url(#p1203cbb4bd)" style="fill: #216e39"/>
   </g>
   <g id="patch_240">
    <path d="M 438.310547 76.766495 
L 448.933045 76.766495 
L 448.933045 87.388993 
L 438.310547 87.388993 
z
" clip-path="url(#p1203cbb4bd)" style="fill: #30a14e"/>
   </g>
   <g id="patch_241">
    <path d="M 450.52642 88.982367 
L 461.148918 88.982367 
L 461.148918 99.604865 
L 450.52642 99.604865 
z
" clip-path="url(#p1203cbb4bd)" style="fill: #30a14e"/>
   </g>
   <g id="patch_242">
    <path d="M 450.52642 101.19824 
L 461.148918 101.19824 
L 461.148918 111.820738 
L 450.52642 111.820738 
z
" clip-path="url(#p1203cbb4bd)" style="fill: #30a14e"/>
   </g>
   <g id="patch_243">
    <path d="M 450.52642 113.414113 
L 461.148918 113.414113 
L 461.148918 124.036611 
L 450.52642 124.036611 
z
" clip-path="url(#p1203cbb4bd)" style="fill: #30a14e"/>
   </g>
   <g id="patch_244">
    <path d="M 450.52642 125.629985 
L 461.148918 125.629985 
L 461.148918 136.252483 
L 450.52642 136.252483 
z
" clip-path="url(#p1203cbb4bd)" style="fill: #216e39"/>
   </g>
   <g id="patch_245">
    <path d="M 450.52642 52.334749 
L 461.148918 52.334749 
L 461.148918 62.957247 
L 450.52642 62.957247 
z
" clip-path="url(#p1203cbb4bd)" style="fill: #40c463"/>
   </g>
   <g id="patch_246">
    <path d="M 450.52642 64.550622 
L 461.148918 64.550622 
L 461.148918 75.17312 
L 450.52642 75.17312 
z
" clip-path="url(#p1203cbb4bd)" style="fill: #30a14e"/>
   </g>
   <g id="patch_247">
    <path d="M 450.52642 76.766495 
L 461.148918 76.766495 
L 461.148918 87.388993 
L 450.52642 87.388993 
z
" clip-path="url(#p1203cbb4bd)" style="fill: #216e39"/>
   </g>
   <g id="patch_248">
    <path d="M 462.742292 88.982367 
L 473.36479 88.982367 
L 473.36479 99.604865 
L 462.742292 99.604865 
z
" clip-path="url(#p1203cbb4bd)" style="fill: #216e39"/>
   </g>
   <g id="patch_249">
    <path d="M 462.742292 101.19824 
L 473.36479 101.19824 
L 473.36479 111.820738 
L 462.742292 111.820738 
z
" clip-path="url(#p1203cbb4bd)" style="fill: #30a14e"/>
   </g>
   <g id="patch_250">
    <path d="M 462.742292 113.414113 
L 473.36479 113.414113 
L 473.36479 124.036611 
L 462.742292 124.036611 
z
" clip-path="url(#p1203cbb4bd)" style="fill: #216e39"/>
   </g>
   <g id="patch_251">
    <path d="M 462.742292 125.629985 
L 473.36479 125.629985 
L 473.36479 136.252483 
L 462.742292 136.252483 
z
" clip-path="url(#p1203cbb4bd)" style="fill: #30a14e"/>
   </g>
   <g id="patch_252">
    <path d="M 462.742292 52.334749 
L 473.36479 52.334749 
L 473.36479 62.957247 
L 462.742292 62.957247 
z
" clip-path="url(#p1203cbb4bd)" style="fill: #30a14e"/>
   </g>
   <g id="patch_253">
    <path d="M 462.742292 64.550622 
L 473.36479 64.550622 
L 473.36479 75.17312 
L 462.742292 75.17312 
z
" clip-path="url(#p1203cbb4bd)" style="fill: #30a14e"/>
   </g>
   <g id="patch_254">
    <path d="M 462.742292 76.766495 
L 473.36479 76.766495 
L 473.36479 87.388993 
L 462.742292 87.388993 
z
" clip-path="url(#p1203cbb4bd)" style="fill: #216e39"/>
   </g>
   <g id="patch_255">
    <path d="M 474.958165 88.982367 
L 485.580663 88.982367 
L 485.580663 99.604865 
L 474.958165 99.604865 
z
" clip-path="url(#p1203cbb4bd)" style="fill: #216e39"/>
   </g>
   <g id="patch_256">
    <path d="M 474.958165 101.19824 
L 485.580663 101.19824 
L 485.580663 111.820738 
L 474.958165 111.820738 
z
" clip-path="url(#p1203cbb4bd)" style="fill: #216e39"/>
   </g>
   <g id="patch_257">
    <path d="M 474.958165 113.414113 
L 485.580663 113.414113 
L 485.580663 124.036611 
L 474.958165 124.036611 
z
" clip-path="url(#p1203cbb4bd)" style="fill: #216e39"/>
   </g>
   <g id="patch_258">
    <path d="M 474.958165 125.629985 
L 485.580663 125.629985 
L 485.580663 136.252483 
L 474.958165 136.252483 
z
" clip-path="url(#p1203cbb4bd)" style="fill: #30a14e"/>
   </g>
   <g id="patch_259">
    <path d="M 474.958165 52.334749 
L 485.580663 52.334749 
L 485.580663 62.957247 
L 474.958165 62.957247 
z
" clip-path="url(#p1203cbb4bd)" style="fill: #216e39"/>
   </g>
   <g id="patch_260">
    <path d="M 474.958165 64.550622 
L 485.580663 64.550622 
L 485.580663 75.17312 
L 474.958165 75.17312 
z
" clip-path="url(#p1203cbb4bd)" style="fill: #30a14e"/>
   </g>
   <g id="patch_261">
    <path d="M 474.958165 76.766495 
L 485.580663 76.766495 
L 485.580663 87.388993 
L 474.958165 87.388993 
z
" clip-path="url(#p1203cbb4bd)" style="fill: #30a14e"/>
   </g>
   <g id="patch_262">
    <path d="M 487.174038 88.982367 
L 497.796536 88.982367 
L 497.796536 99.604865 
L 487.174038 99.604865 
z
" clip-path="url(#p1203cbb4bd)" style="fill: #216e39"/>
   </g>
   <g id="patch_263">
    <path d="M 487.174038 101.19824 
L 497.796536 101.19824 
L 497.796536 111.820738 
L 487.174038 111.820738 
z
" clip-path="url(#p1203cbb4bd)" style="fill: #216e39"/>
   </g>
   <g id="patch_264">
    <path d="M 487.174038 113.414113 
L 497.796536 113.414113 
L 497.796536 124.036611 
L 487.174038 124.036611 
z
" clip-path="url(#p1203cbb4bd)" style="fill: #40c463"/>
   </g>
   <g id="patch_265">
    <path d="M 487.174038 125.629985 
L 497.796536 125.629985 
L 497.796536 136.252483 
L 487.174038 136.252483 
z
" clip-path="url(#p1203cbb4bd)" style="fill: #30a14e"/>
   </g>
   <g id="patch_266">
    <path d="M 487.174038 52.334749 
L 497.796536 52.334749 
L 497.796536 62.957247 
L 487.174038 62.957247 
z
" clip-path="url(#p1203cbb4bd)" style="fill: #30a14e"/>
   </g>
   <g id="patch_267">
    <path d="M 487.174038 64.550622 
L 497.796536 64.550622 
L 497.796536 75.17312 
L 487.174038 75.17312 
z
" clip-path="url(#p1203cbb4bd)" style="fill: #216e39"/>
   </g>
   <g id="patch_268">
    <path d="M 487.174038 76.766495 
L 497.796536 76.766495 
L 497.796536 87.388993 
L 487.174038 87.388993 
z
" clip-path="url(#p1203cbb4bd)" style="fill: #40c463"/>
   </g>
   <g id="patch_269">
    <path d="M 499.38991 88.982367 
L 510.012408 88.982367 
L 510.012408 99.604865 
L 499.38991 99.604865 
z
" clip-path="url(#p1203cbb4bd)" style="fill: #9be9a8"/>
   </g>
   <g id="patch_270">
    <path d="M 499.38991 101.19824 
L 510.012408 101.19824 
L 510.012408 111.820738 
L 499.38991 111.820738 
z
" clip-path="url(#p1203cbb4bd)" style="fill: #40c463"/>
   </g>
   <g id="patch_271">
    <path d="M 499.38991 113.414113 
L 510.012408 113.414113 
L 510.012408 124.036611 
L 499.38991 124.036611 
z
" clip-path="url(#p1203cbb4bd)" style="fill: #30a14e"/>
   </g>
   <g id="patch_272">
    <path d="M 499.38991 125.629985 
L 510.012408 125.629985 
L 510.012408 136.252483 
L 499.38991 136.252483 
z
" clip-path="url(#p1203cbb4bd)" style="fill: #30a14e"/>
   </g>
   <g id="patch_273">
    <path d="M 499.38991 52.334749 
L 510.012408 52.334749 
L 510.012408 62.957247 
L 499.38991 62.957247 
z
" clip-path="url(#p1203cbb4bd)" style="fill: #30a14e"/>
   </g>
   <g id="patch_274">
    <path d="M 499.38991 64.550622 
L 510.012408 64.550622 
L 510.012408 75.17312 
L 499.38991 75.17312 
z
" clip-path="url(#p1203cbb4bd)" style="fill: #40c463"/>
   </g>
   <g id="patch_275">
    <path d="M 499.38991 76.766495 
L 510.012408 76.766495 
L 510.012408 87.388993 
L 499.38991 87.388993 
z
" clip-path="url(#p1203cbb4bd)" style="fill: #40c463"/>
   </g>
   <g id="patch_276">
    <path d="M 511.605783 88.982367 
L 522.228281 88.982367 
L 522.228281 99.604865 
L 511.605783 99.604865 
z
" clip-path="url(#p1203cbb4bd)" style="fill: #9be9a8"/>
   </g>
   <g id="patch_277">
    <path d="M 511.605783 101.19824 
L 522.228281 101.19824 
L 522.228281 111.820738 
L 511.605783 111.820738 
z
" clip-path="url(#p1203cbb4bd)" style="fill: #30a14e"/>
   </g>
   <g id="patch_278">
    <path d="M 511.605783 113.414113 
L 522.228281 113.414113 
L 522.228281 124.036611 
L 511.605783 124.036611 
z
" clip-path="url(#p1203cbb4bd)" style="fill: #30a14e"/>
   </g>
   <g id="patch_279">
    <path d="M 511.605783 125.629985 
L 522.228281 125.629985 
L 522.228281 136.252483 
L 511.605783 136.252483 
z
" clip-path="url(#p1203cbb4bd)" style="fill: #216e39"/>
   </g>
   <g id="patch_280">
    <path d="M 511.605783 52.334749 
L 522.228281 52.334749 
L 522.228281 62.957247 
L 511.605783 62.957247 
z
" clip-path="url(#p1203cbb4bd)" style="fill: #30a14e"/>
   </g>
   <g id="patch_281">
    <path d="M 511.605783 64.550622 
L 522.228281 64.550622 
L 522.228281 75.17312 
L 511.605783 75.17312 
z
" clip-path="url(#p1203cbb4bd)" style="fill: #30a14e"/>
   </g>
   <g id="patch_282">
    <path d="M 511.605783 76.766495 
L 522.228281 76.766495 
L 522.228281 87.388993 
L 511.605783 87.388993 
z
" clip-path="url(#p1203cbb4bd)" style="fill: #216e39"/>
   </g>
   <g id="patch_283">
    <path d="M 523.821656 88.982367 
L 534.444153 88.982367 
L 534.444153 99.604865 
L 523.821656 99.604865 
z
" clip-path="url(#p1203cbb4bd)" style="fill: #30a14e"/>
   </g>
   <g id="patch_284">
    <path d="M 523.821656 101.19824 
L 534.444153 101.19824 
L 534.444153 111.820738 
L 523.821656 111.820738 
z
" clip-path="url(#p1203cbb4bd)" style="fill: #40c463"/>
   </g>
   <g id="patch_285">
    <path d="M 523.821656 113.414113 
L 534.444153 113.414113 
L 534.444153 124.036611 
L 523.821656 124.036611 
z
" clip-path="url(#p1203cbb4bd)" style="fill: #40c463"/>
   </g>
   <g id="patch_286">
    <path d="M 523.821656 125.629985 
L 534.444153 125.629985 
L 534.444153 136.252483 
L 523.821656 136.252483 
z
" clip-path="url(#p1203cbb4bd)" style="fill: #40c463"/>
   </g>
   <g id="patch_287">
    <path d="M 523.821656 52.334749 
L 534.444153 52.334749 
L 534.444153 62.957247 
L 523.821656 62.957247 
z
" clip-path="url(#p1203cbb4bd)" style="fill: #9be9a8"/>
   </g>
   <g id="patch_288">
    <path d="M 523.821656 64.550622 
L 534.444153 64.550622 
L 534.444153 75.17312 
L 523.821656 75.17312 
z
" clip-path="url(#p1203cbb4bd)" style="fill: #30a14e"/>
   </g>
   <g id="patch_289">
    <path d="M 523.821656 76.766495 
L 534.444153 76.766495 
L 534.444153 87.388993 
L 523.821656 87.388993 
z
" clip-path="url(#p1203cbb4bd)" style="fill: #30a14e"/>
   </g>
   <g id="patch_290">
    <path d="M 536.037528 88.982367 
L 546.660026 88.982367 
L 546.660026 99.604865 
L 536.037528 99.604865 
z
" clip-path="url(#p1203cbb4bd)" style="fill: #40c463"/>
   </g>
   <g id="patch_291">
    <path d="M 536.037528 101.19824 
L 546.660026 101.19824 
L 546.660026 111.820738 
L 536.037528 111.820738 
z
" clip-path="url(#p1203cbb4bd)" style="fill: #40c463"/>
   </g>
   <g id="patch_292">
    <path d="M 536.037528 113.414113 
L 546.660026 113.414113 
L 546.660026 124.036611 
L 536.037528 124.036611 
z
" clip-path="url(#p1203cbb4bd)" style="fill: #30a14e"/>
   </g>
   <g id="patch_293">
    <path d="M 536.037528 125.629985 
L 546.660026 125.629985 
L 546.660026 136.252483 
L 536.037528 136.252483 
z
" clip-path="url(#p1203cbb4bd)" style="fill: #216e39"/>
   </g>
   <g id="patch_294">
    <path d="M 536.037528 52.334749 
L 546.660026 52.334749 
L 546.660026 62.957247 
L 536.037528 62.957247 
z
" clip-path="url(#p1203cbb4bd)" style="fill: #30a14e"/>
   </g>
   <g id="patch_295">
    <path d="M 536.037528 64.550622 
L 546.660026 64.550622 
L 546.660026 75.17312 
L 536.037528 75.17312 
z
" clip-path="url(#p1203cbb4bd)" style="fill: #40c463"/>
   </g>
   <g id="patch_296">
    <path d="M 536.037528 76.766495 
L 546.660026 76.766495 
L 546.660026 87.388993 
L 536.037528 87.388993 
z
" clip-path="url(#p1203cbb4bd)" style="fill: #40c463"/>
   </g>
   <g id="patch_297">
    <path d="M 548.253401 88.982367 
L 558.875899 88.982367 
L 558.875899 99.604865 
L 548.253401 99.604865 
z
" clip-path="url(#p1203cbb4bd)" style="fill: #40c463"/>
   </g>
   <g id="patch_298">
    <path d="M 548.253401 101.19824 
L 558.875899 101.19824 
L 558.875899 111.820738 
L 548.253401 111.820738 
z
" clip-path="url(#p1203cbb4bd)" style="fill: #40c463"/>
   </g>
   <g id="patch_299">
    <path d="M 548.253401 113.414113 
L 558.875899 113.414113 
L 558.875899 124.036611 
L 548.253401 124.036611 
z
" clip-path="url(#p1203cbb4bd)" style="fill: #40c463"/>
   </g>
   <g id="patch_300">
    <path d="M 548.253401 125.629985 
L 558.875899 125.629985 
L 558.875899 136.252483 
L 548.253401 136.252483 
z
" clip-path="url(#p1203cbb4bd)" style="fill: #40c463"/>
   </g>
   <g id="patch_301">
    <path d="M 548.253401 52.334749 
L 558.875899 52.334749 
L 558.875899 62.957247 
L 548.253401 62.957247 
z
" clip-path="url(#p1203cbb4bd)" style="fill: #30a14e"/>
   </g>
   <g id="patch_302">
    <path d="M 548.253401 64.550622 
L 558.875899 64.550622 
L 558.875899 75.17312 
L 548.253401 75.17312 
z
" clip-path="url(#p1203cbb4bd)" style="fill: #30a14e"/>
   </g>
   <g id="patch_303">
    <path d="M 548.253401 76.766495 
L 558.875899 76.766495 
L 558.875899 87.388993 
L 548.253401 87.388993 
z
" clip-path="url(#p1203cbb4bd)" style="fill: #30a14e"/>
   </g>
   <g id="patch_304">
    <path d="M 560.469273 88.982367 
L 571.091771 88.982367 
L 571.091771 99.604865 
L 560.469273 99.604865 
z
" clip-path="url(#p1203cbb4bd)" style="fill: #40c463"/>
   </g>
   <g id="patch_305">
    <path d="M 560.469273 101.19824 
L 571.091771 101.19824 
L 571.091771 111.820738 
L 560.469273 111.820738 
z
" clip-path="url(#p1203cbb4bd)" style="fill: #30a14e"/>
   </g>
   <g id="patch_306">
    <path d="M 560.469273 113.414113 
L 571.091771 113.414113 
L 571.091771 124.036611 
L 560.469273 124.036611 
z
" clip-path="url(#p1203cbb4bd)" style="fill: #40c463"/>
   </g>
   <g id="patch_307">
    <path d="M 560.469273 125.629985 
L 571.091771 125.629985 
L 571.091771 136.252483 
L 560.469273 136.252483 
z
" clip-path="url(#p1203cbb4bd)" style="fill: #40c463"/>
   </g>
   <g id="patch_308">
    <path d="M 560.469273 52.334749 
L 571.091771 52.334749 
L 571.091771 62.957247 
L 560.469273 62.957247 
z
" clip-path="url(#p1203cbb4bd)" style="fill: #30a14e"/>
   </g>
   <g id="patch_309">
    <path d="M 560.469273 64.550622 
L 571.091771 64.550622 
L 571.091771 75.17312 
L 560.469273 75.17312 
z
" clip-path="url(#p1203cbb4bd)" style="fill: #40c463"/>
   </g>
   <g id="patch_310">
    <path d="M 560.469273 76.766495 
L 571.091771 76.766495 
L 571.091771 87.388993 
L 560.469273 87.388993 
z
" clip-path="url(#p1203cbb4bd)" style="fill: #30a14e"/>
   </g>
   <g id="patch_311">
    <path d="M 572.685146 88.982367 
L 583.307644 88.982367 
L 583.307644 99.604865 
L 572.685146 99.604865 
z
" clip-path="url(#p1203cbb4bd)" style="fill: #30a14e"/>
   </g>
   <g id="patch_312">
    <path d="M 572.685146 101.19824 
L 583.307644 101.19824 
L 583.307644 111.820738 
L 572.685146 111.820738 
z
" clip-path="url(#p1203cbb4bd)" style="fill: #9be9a8"/>
   </g>
   <g id="patch_313">
    <path d="M 572.685146 113.414113 
L 583.307644 113.414113 
L 583.307644 124.036611 
L 572.685146 124.036611 
z
" clip-path="url(#p1203cbb4bd)" style="fill: #40c463"/>
   </g>
   <g id="patch_314">
    <path d="M 572.685146 125.629985 
L 583.307644 125.629985 
L 583.307644 136.252483 
L 572.685146 136.252483 
z
" clip-path="url(#p1203cbb4bd)" style="fill: #40c463"/>
   </g>
   <g id="patch_315">
    <path d="M 572.685146 52.334749 
L 583.307644 52.334749 
L 583.307644 62.957247 
L 572.685146 62.957247 
z
" clip-path="url(#p1203cbb4bd)" style="fill: #40c463"/>
   </g>
   <g id="patch_316">
    <path d="M 572.685146 64.550622 
L 583.307644 64.550622 
L 583.307644 75.17312 
L 572.685146 75.17312 
z
" clip-path="url(#p1203cbb4bd)" style="fill: #40c463"/>
   </g>
   <g id="patch_317">
    <path d="M 572.685146 76.766495 
L 583.307644 76.766495 
L 583.307644 87.388993 
L 572.685146 87.388993 
z
" clip-path="url(#p1203cbb4bd)" style="fill: #40c463"/>
   </g>
   <g id="patch_318">
    <path d="M 584.901019 88.982367 
L 595.523517 88.982367 
L 595.523517 99.604865 
L 584.901019 99.604865 
z
" clip-path="url(#p1203cbb4bd)" style="fill: #9be9a8"/>
   </g>
   <g id="patch_319">
    <path d="M 584.901019 101.19824 
L 595.523517 101.19824 
L 595.523517 111.820738 
L 584.901019 111.820738 
z
" clip-path="url(#p1203cbb4bd)" style="fill: #9be9a8"/>
   </g>
   <g id="patch_320">
    <path d="M 584.901019 113.414113 
L 595.523517 113.414113 
L 595.523517 124.036611 
L 584.901019 124.036611 
z
" clip-path="url(#p1203cbb4bd)" style="fill: #40c463"/>
   </g>
   <g id="patch_321">
    <path d="M 584.901019 125.629985 
L 595.523517 125.629985 
L 595.523517 136.252483 
L 584.901019 136.252483 
z
" clip-path="url(#p1203cbb4bd)" style="fill: #30a14e"/>
   </g>
   <g id="patch_322">
    <path d="M 584.901019 52.334749 
L 595.523517 52.334749 
L 595.523517 62.957247 
L 584.901019 62.957247 
z
" clip-path="url(#p1203cbb4bd)" style="fill: #30a14e"/>
   </g>
   <g id="patch_323">
    <path d="M 584.901019 64.550622 
L 595.523517 64.550622 
L 595.523517 75.17312 
L 584.901019 75.17312 
z
" clip-path="url(#p1203cbb4bd)" style="fill: #30a14e"/>
   </g>
   <g id="patch_324">
    <path d="M 584.901019 76.766495 
L 595.523517 76.766495 
L 595.523517 87.388993 
L 584.901019 87.388993 
z
" clip-path="url(#p1203cbb4bd)" style="fill: #9be9a8"/>
   </g>
   <g id="patch_325">
    <path d="M 597.116891 88.982367 
L 607.739389 88.982367 
L 607.739389 99.604865 
L 597.116891 99.604865 
z
" clip-path="url(#p1203cbb4bd)" style="fill: #40c463"/>
   </g>
   <g id="patch_326">
    <path d="M 597.116891 101.19824 
L 607.739389 101.19824 
L 607.739389 111.820738 
L 597.116891 111.820738 
z
" clip-path="url(#p1203cbb4bd)" style="fill: #9be9a8"/>
   </g>
   <g id="patch_327">
    <path d="M 597.116891 113.414113 
L 607.739389 113.414113 
L 607.739389 124.036611 
L 597.116891 124.036611 
z
" clip-path="url(#p1203cbb4bd)" style="fill: #30a14e"/>
   </g>
   <g id="patch_328">
    <path d="M 597.116891 125.629985 
L 607.739389 125.629985 
L 607.739389 136.252483 
L 597.116891 136.252483 
z
" clip-path="url(#p1203cbb4bd)" style="fill: #40c463"/>
   </g>
   <g id="patch_329">
    <path d="M 597.116891 52.334749 
L 607.739389 52.334749 
L 607.739389 62.957247 
L 597.116891 62.957247 
z
" clip-path="url(#p1203cbb4bd)" style="fill: #9be9a8"/>
   </g>
   <g id="patch_330">
    <path d="M 597.116891 64.550622 
L 607.739389 64.550622 
L 607.739389 75.17312 
L 597.116891 75.17312 
z
" clip-path="url(#p1203cbb4bd)" style="fill: #30a14e"/>
   </g>
   <g id="patch_331">
    <path d="M 597.116891 76.766495 
L 607.739389 76.766495 
L 607.739389 87.388993 
L 597.116891 87.388993 
z
" clip-path="url(#p1203cbb4bd)" style="fill: #40c463"/>
   </g>
   <g id="patch_332">
    <path d="M 609.332764 88.982367 
L 619.955262 88.982367 
L 619.955262 99.604865 
L 609.332764 99.604865 
z
" clip-path="url(#p1203cbb4bd)" style="fill: #9be9a8"/>
   </g>
   <g id="patch_333">
    <path d="M 609.332764 101.19824 
L 619.955262 101.19824 
L 619.955262 111.820738 
L 609.332764 111.820738 
z
" clip-path="url(#p1203cbb4bd)" style="fill: #40c463"/>
   </g>
   <g id="patch_334">
    <path d="M 609.332764 113.414113 
L 619.955262 113.414113 
L 619.955262 124.036611 
L 609.332764 124.036611 
z
" clip-path="url(#p1203cbb4bd)" style="fill: #9be9a8"/>
   </g>
   <g id="patch_335">
    <path d="M 609.332764 125.629985 
L 619.955262 125.629985 
L 619.955262 136.252483 
L 609.332764 136.252483 
z
" clip-path="url(#p1203cbb4bd)" style="fill: #40c463"/>
   </g>
   <g id="patch_336">
    <path d="M 609.332764 52.334749 
L 619.955262 52.334749 
L 619.955262 62.957247 
L 609.332764 62.957247 
z
" clip-path="url(#p1203cbb4bd)" style="fill: #9be9a8"/>
   </g>
   <g id="patch_337">
    <path d="M 609.332764 64.550622 
L 619.955262 64.550622 
L 619.955262 75.17312 
L 609.332764 75.17312 
z
" clip-path="url(#p1203cbb4bd)" style="fill: #40c463"/>
   </g>
   <g id="patch_338">
    <path d="M 609.332764 76.766495 
L 619.955262 76.766495 
L 619.955262 87.388993 
L 609.332764 87.388993 
z
" clip-path="url(#p1203cbb4bd)" style="fill: #9be9a8"/>
   </g>
   <g id="patch_339">
    <path d="M 621.548637 88.982367 
L 632.171135 88.982367 
L 632.171135 99.604865 
L 621.548637 99.604865 
z
" clip-path="url(#p1203cbb4bd)" style="fill: #40c463"/>
   </g>
   <g id="patch_340">
    <path d="M 621.548637 101.19824 
L 632.171135 101.19824 
L 632.171135 111.820738 
L 621.548637 111.820738 
z
" clip-path="url(#p1203cbb4bd)" style="fill: #30a14e"/>
   </g>
   <g id="patch_341">
    <path d="M 621.548637 113.414113 
L 632.171135 113.414113 
L 632.171135 124.036611 
L 621.548637 124.036611 
z
" clip-path="url(#p1203cbb4bd)" style="fill: #9be9a8"/>
   </g>
   <g id="patch_342">
    <path d="M 621.548637 125.629985 
L 632.171135 125.629985 
L 632.171135 136.252483 
L 621.548637 136.252483 
z
" clip-path="url(#p1203cbb4bd)" style="fill: #40c463"/>
   </g>
   <g id="patch_343">
    <path d="M 621.548637 52.334749 
L 632.171135 52.334749 
L 632.171135 62.957247 
L 621.548637 62.957247 
z
" clip-path="url(#p1203cbb4bd)" style="fill: #40c463"/>
   </g>
   <g id="patch_344">
    <path d="M 621.548637 64.550622 
L 632.171135 64.550622 
L 632.171135 75.17312 
L 621.548637 75.17312 
z
" clip-path="url(#p1203cbb4bd)" style="fill: #9be9a8"/>
   </g>
   <g id="patch_345">
    <path d="M 621.548637 76.766495 
L 632.171135 76.766495 
L 632.171135 87.388993 
L 621.548637 87.388993 
z
" clip-path="url(#p1203cbb4bd)" style="fill: #40c463"/>
   </g>
   <g id="patch_346">
    <path d="M 633.764509 88.982367 
L 644.387007 88.982367 
L 644.387007 99.604865 
L 633.764509 99.604865 
z
" clip-path="url(#p1203cbb4bd)" style="fill: #9be9a8"/>
   </g>
   <g id="patch_347">
    <path d="M 633.764509 101.19824 
L 644.387007 101.19824 
L 644.387007 111.820738 
L 633.764509 111.820738 
z
" clip-path="url(#p1203cbb4bd)" style="fill: #9be9a8"/>
   </g>
   <g id="patch_348">
    <path d="M 633.764509 113.414113 
L 644.387007 113.414113 
L 644.387007 124.036611 
L 633.764509 124.036611 
z
" clip-path="url(#p1203cbb4bd)" style="fill: #40c463"/>
   </g>
   <g id="patch_349">
    <path d="M 633.764509 125.629985 
L 644.387007 125.629985 
L 644.387007 136.252483 
L 633.764509 136.252483 
z
" clip-path="url(#p1203cbb4bd)" style="fill: #40c463"/>
   </g>
   <g id="patch_350">
    <path d="M 633.764509 52.334749 
L 644.387007 52.334749 
L 644.387007 62.957247 
L 633.764509 62.957247 
z
" clip-path="url(#p1203cbb4bd)" style="fill: #9be9a8"/>
   </g>
   <g id="patch_351">
    <path d="M 633.764509 64.550622 
L 644.387007 64.550622 
L 644.387007 75.17312 
L 633.764509 75.17312 
z
" clip-path="url(#p1203cbb4bd)" style="fill: #9be9a8"/>
   </g>
   <g id="patch_352">
    <path d="M 633.764509 76.766495 
L 644.387007 76.766495 
L 644.387007 87.388993 
L 633.764509 87.388993 
z
" clip-path="url(#p1203cbb4bd)" style="fill: #9be9a8"/>
   </g>
   <g id="patch_353">
    <path d="M 645.980382 88.982367 
L 656.60288 88.982367 
L 656.60288 99.604865 
L 645.980382 99.604865 
z
" clip-path="url(#p1203cbb4bd)" style="fill: #40c463"/>
   </g>
   <g id="patch_354">
    <path d="M 645.980382 101.19824 
L 656.60288 101.19824 
L 656.60288 111.820738 
L 645.980382 111.820738 
z
" clip-path="url(#p1203cbb4bd)" style="fill: #9be9a8"/>
   </g>
   <g id="patch_355">
    <path d="M 645.980382 113.414113 
L 656.60288 113.414113 
L 656.60288 124.036611 
L 645.980382 124.036611 
z
" clip-path="url(#p1203cbb4bd)" style="fill: #40c463"/>
   </g>
   <g id="patch_356">
    <path d="M 645.980382 125.629985 
L 656.60288 125.629985 
L 656.60288 136.252483 
L 645.980382 136.252483 
z
" clip-path="url(#p1203cbb4bd)" style="fill: #9be9a8"/>
   </g>
   <g id="patch_357">
    <path d="M 645.980382 52.334749 
L 656.60288 52.334749 
L 656.60288 62.957247 
L 645.980382 62.957247 
z
" clip-path="url(#p1203cbb4bd)" style="fill: #40c463"/>
   </g>
   <g id="patch_358">
    <path d="M 645.980382 64.550622 
L 656.60288 64.550622 
L 656.60288 75.17312 
L 645.980382 75.17312 
z
" clip-path="url(#p1203cbb4bd)" style="fill: #9be9a8"/>
   </g>
   <g id="patch_359">
    <path d="M 645.980382 76.766495 
L 656.60288 76.766495 
L 656.60288 87.388993 
L 645.980382 87.388993 
z
" clip-path="url(#p1203cbb4bd)" style="fill: #40c463"/>
   </g>
   <g id="patch_360">
    <path d="M 658.196255 88.982367 
L 668.818753 88.982367 
L 668.818753 99.604865 
L 658.196255 99.604865 
z
" clip-path="url(#p1203cbb4bd)" style="fill: #9be9a8"/>
   </g>
   <g id="patch_361">
    <path d="M 658.196255 101.19824 
L 668.818753 101.19824 
L 668.818753 111.820738 
L 658.196255 111.820738 
z
" clip-path="url(#p1203cbb4bd)" style="fill: #40c463"/>
   </g>
   <g id="patch_362">
    <path d="M 658.196255 113.414113 
L 668.818753 113.414113 
L 668.818753 124.036611 
L 658.196255 124.036611 
z
" clip-path="url(#p1203cbb4bd)" style="fill: #40c463"/>
   </g>
   <g id="patch_363">
    <path d="M 658.196255 125.629985 
L 668.818753 125.629985 
L 668.818753 136.252483 
L 658.196255 136.252483 
z
" clip-path="url(#p1203cbb4bd)" style="fill: #9be9a8"/>
   </g>
   <g id="patch_364">
    <path d="M 658.196255 52.334749 
L 668.818753 52.334749 
L 668.818753 62.957247 
L 658.196255 62.957247 
z
" clip-path="url(#p1203cbb4bd)" style="fill: #9be9a8"/>
   </g>
   <g id="patch_365">
    <path d="M 658.196255 64.550622 
L 668.818753 64.550622 
L 668.818753 75.17312 
L 658.196255 75.17312 
z
" clip-path="url(#p1203cbb4bd)" style="fill: #9be9a8"/>
   </g>
   <g id="patch_366">
    <path d="M 658.196255 76.766495 
L 668.818753 76.766495 
L 668.818753 87.388993 
L 658.196255 87.388993 
z
" clip-path="url(#p1203cbb4bd)" style="fill: #9be9a8"/>
   </g>
   <g id="patch_367">
    <path d="M 670.412127 88.982367 
L 681.034625 88.982367 
L 681.034625 99.604865 
L 670.412127 99.604865 
z
" clip-path="url(#p1203cbb4bd)" style="fill: #9be9a8"/>
   </g>
   <g id="patch_368">
    <path d="M 621.548637 143.157107 
L 632.171135 143.157107 
L 632.171135 153.779605 
L 621.548637 153.779605 
z
" clip-path="url(#p1203cbb4bd)" style="fill: #ebedf0"/>
   </g>
   <g id="patch_369">
    <path d="M 633.764509 143.157107 
L 644.387007 143.157107 
L 644.387007 153.779605 
L 633.764509 153.779605 
z
" clip-path="url(#p1203cbb4bd)" style="fill: #9be9a8"/>
   </g>
   <g id="patch_370">
    <path d="M 645.980382 143.157107 
L 656.60288 143.157107 
L 656.60288 153.779605 
L 645.980382 153.779605 
z
" clip-path="url(#p1203cbb4bd)" style="fill: #40c463"/>
   </g>
   <g id="patch_371">
    <path d="M 658.196255 143.157107 
L 668.818753 143.157107 
L 668.818753 153.779605 
L 658.196255 153.779605 
z
" clip-path="url(#p1203cbb4bd)" style="fill: #30a14e"/>
   </g>
   <g id="patch_372">
    <path d="M 670.412127 143.157107 
L 681.034625 143.157107 
L 681.034625 153.779605 
L 670.412127 153.779605 
z
" clip-path="url(#p1203cbb4bd)" style="fill: #216e39"/>
   </g>
   <g id="matplotlib.axis_1">
    <g id="xtick_1">
     <g id="line2d_1"/>
     <g id="text_1">
      <!-- Jan -->
      <g transform="translate(27.927374 42.718) scale(0.1 -0.1)">
       <defs>
        <path id="NotoSans-Regular-2d" d="M -26 -1216 
Q -179 -1216 -294 -1193 
Q -410 -1171 -499 -1133 
L -499 -646 
Q -397 -672 -281 -691 
Q -166 -710 -38 -710 
Q 122 -710 266 -646 
Q 410 -582 499 -422 
Q 589 -262 589 26 
L 589 4570 
L 1165 4570 
L 1165 70 
Q 1165 -589 838 -902 
Q 512 -1216 -26 -1216 
z
" transform="scale(0.015625)"/>
        <path id="NotoSans-Regular-44" d="M 1843 3488 
Q 2470 3488 2771 3213 
Q 3072 2938 3072 2336 
L 3072 0 
L 2662 0 
L 2554 486 
L 2528 486 
Q 2304 205 2057 70 
Q 1811 -64 1376 -64 
Q 909 -64 601 182 
Q 294 429 294 954 
Q 294 1466 697 1744 
Q 1101 2022 1939 2048 
L 2522 2067 
L 2522 2272 
Q 2522 2701 2336 2867 
Q 2150 3034 1811 3034 
Q 1542 3034 1299 2954 
Q 1056 2874 845 2771 
L 672 3194 
Q 896 3315 1203 3401 
Q 1510 3488 1843 3488 
z
M 2010 1658 
Q 1370 1632 1123 1453 
Q 877 1274 877 947 
Q 877 659 1053 524 
Q 1229 390 1504 390 
Q 1939 390 2227 630 
Q 2515 870 2515 1370 
L 2515 1677 
L 2010 1658 
z
" transform="scale(0.015625)"/>
        <path id="NotoSans-Regular-51" d="M 2195 3494 
Q 2810 3494 3123 3196 
Q 3437 2899 3437 2234 
L 3437 0 
L 2880 0 
L 2880 2195 
Q 2880 3021 2112 3021 
Q 1542 3021 1324 2701 
Q 1107 2381 1107 1779 
L 1107 0 
L 544 0 
L 544 3430 
L 998 3430 
L 1082 2963 
L 1114 2963 
Q 1280 3232 1574 3363 
Q 1869 3494 2195 3494 
z
" transform="scale(0.015625)"/>
       </defs>
       <use xlink:href="#NotoSans-Regular-2d"/>
       <use xlink:href="#NotoSans-Regular-44" transform="translate(27.296875 0)"/>
       <use xlink:href="#NotoSans-Regular-51" transform="translate(83.390625 0)"/>
      </g>
     </g>
    </g>
    <g id="xtick_2">
     <g id="line2d_2"/>
     <g id="text_2">
      <!-- Feb -->
      <g transform="translate(75.559615 42.718) scale(0.1 -0.1)">
       <defs>
        <path id="NotoSans-Regular-29" d="M 1197 0 
L 621 0 
L 621 4570 
L 3174 4570 
L 3174 4064 
L 1197 4064 
L 1197 2445 
L 3053 2445 
L 3053 1939 
L 1197 1939 
L 1197 0 
z
" transform="scale(0.015625)"/>
        <path id="NotoSans-Regular-48" d="M 1869 3494 
Q 2310 3494 2627 3302 
Q 2944 3110 3113 2761 
Q 3283 2413 3283 1946 
L 3283 1606 
L 934 1606 
Q 947 1024 1232 720 
Q 1517 416 2029 416 
Q 2355 416 2608 477 
Q 2861 538 3130 653 
L 3130 160 
Q 2867 45 2611 -9 
Q 2355 -64 2003 -64 
Q 1517 -64 1142 134 
Q 768 333 560 726 
Q 352 1120 352 1690 
Q 352 2253 541 2656 
Q 730 3059 1072 3276 
Q 1414 3494 1869 3494 
z
M 1862 3034 
Q 1459 3034 1225 2774 
Q 992 2515 947 2054 
L 2694 2054 
Q 2688 2490 2489 2762 
Q 2291 3034 1862 3034 
z
" transform="scale(0.015625)"/>
        <path id="NotoSans-Regular-45" d="M 1107 3680 
Q 1107 3462 1097 3273 
Q 1088 3085 1075 2976 
L 1107 2976 
Q 1254 3194 1510 3341 
Q 1766 3488 2170 3488 
Q 2810 3488 3197 3043 
Q 3584 2598 3584 1715 
Q 3584 832 3193 384 
Q 2803 -64 2170 -64 
Q 1766 -64 1510 83 
Q 1254 230 1107 435 
L 1062 435 
L 947 0 
L 544 0 
L 544 4864 
L 1107 4864 
L 1107 3680 
z
M 2074 3021 
Q 1530 3021 1318 2707 
Q 1107 2394 1107 1734 
L 1107 1709 
Q 1107 1075 1315 739 
Q 1523 403 2086 403 
Q 2547 403 2774 742 
Q 3002 1082 3002 1722 
Q 3002 3021 2074 3021 
z
" transform="scale(0.015625)"/>
       </defs>
       <use xlink:href="#NotoSans-Regular-29"/>
       <use xlink:href="#NotoSans-Regular-48" transform="translate(51.90625 0)"/>
       <use xlink:href="#NotoSans-Regular-45" transform="translate(108.3125 0)"/>
      </g>
     </g>
    </g>
    <g id="xtick_3">
     <g id="line2d_3"/>
     <g id="text_3">
      <!-- Mar -->
      <g transform="translate(123.509043 42.718) scale(0.1 -0.1)">
       <defs>
        <path id="NotoSans-Regular-30" d="M 2637 0 
L 1133 4006 
L 1107 4006 
Q 1126 3808 1139 3472 
Q 1152 3136 1152 2771 
L 1152 0 
L 621 0 
L 621 4570 
L 1472 4570 
L 2880 826 
L 2906 826 
L 4339 4570 
L 5184 4570 
L 5184 0 
L 4614 0 
L 4614 2810 
Q 4614 3142 4630 3468 
Q 4646 3795 4659 4000 
L 4634 4000 
L 3110 0 
L 2637 0 
z
" transform="scale(0.015625)"/>
        <path id="NotoSans-Regular-55" d="M 2144 3494 
Q 2240 3494 2352 3484 
Q 2464 3475 2547 3456 
L 2477 2938 
Q 2394 2957 2294 2969 
Q 2195 2982 2106 2982 
Q 1843 2982 1612 2838 
Q 1382 2694 1244 2435 
Q 1107 2176 1107 1830 
L 1107 0 
L 544 0 
L 544 3430 
L 1005 3430 
L 1069 2803 
L 1094 2803 
Q 1261 3085 1523 3289 
Q 1786 3494 2144 3494 
z
" transform="scale(0.015625)"/>
       </defs>
       <use xlink:href="#NotoSans-Regular-30"/>
       <use xlink:href="#NotoSans-Regular-44" transform="translate(90.703125 0)"/>
       <use xlink:href="#NotoSans-Regular-55" transform="translate(146.796875 0)"/>
      </g>
     </g>
    </g>
    <g id="xtick_4">
     <g id="line2d_4"/>
     <g id="text_4">
      <!-- Apr -->
      <g transform="translate(185.657938 42.718) scale(0.1 -0.1)">
       <defs>
        <path id="NotoSans-Regular-24" d="M 3488 0 
L 2938 1414 
L 1126 1414 
L 582 0 
L 0 0 
L 1786 4589 
L 2304 4589 
L 4083 0 
L 3488 0 
z
M 2253 3309 
Q 2234 3360 2189 3494 
Q 2144 3629 2102 3773 
Q 2061 3917 2035 3994 
Q 1990 3795 1932 3606 
Q 1875 3418 1837 3309 
L 1318 1926 
L 2765 1926 
L 2253 3309 
z
" transform="scale(0.015625)"/>
        <path id="NotoSans-Regular-53" d="M 2176 3494 
Q 2810 3494 3197 3052 
Q 3584 2611 3584 1722 
Q 3584 845 3197 390 
Q 2810 -64 2170 -64 
Q 1773 -64 1513 86 
Q 1254 237 1107 435 
L 1069 435 
Q 1082 326 1094 160 
Q 1107 -6 1107 -128 
L 1107 -1536 
L 544 -1536 
L 544 3430 
L 1005 3430 
L 1082 2963 
L 1107 2963 
Q 1261 3187 1510 3340 
Q 1760 3494 2176 3494 
z
M 2074 3021 
Q 1549 3021 1334 2726 
Q 1120 2432 1107 1830 
L 1107 1722 
Q 1107 1088 1315 745 
Q 1523 403 2086 403 
Q 2400 403 2601 576 
Q 2803 749 2902 1046 
Q 3002 1344 3002 1728 
Q 3002 2317 2774 2669 
Q 2547 3021 2074 3021 
z
" transform="scale(0.015625)"/>
       </defs>
       <use xlink:href="#NotoSans-Regular-24"/>
       <use xlink:href="#NotoSans-Regular-53" transform="translate(63.90625 0)"/>
       <use xlink:href="#NotoSans-Regular-55" transform="translate(125.40625 0)"/>
      </g>
     </g>
    </g>
    <g id="xtick_5">
     <g id="line2d_5"/>
     <g id="text_5">
      <!-- May -->
      <g transform="translate(232.966741 42.718) scale(0.1 -0.1)">
       <defs>
        <path id="NotoSans-Regular-5c" d="M 6 3430 
L 608 3430 
L 1350 1478 
Q 1446 1222 1523 988 
Q 1600 755 1638 544 
L 1664 544 
Q 1702 704 1785 963 
Q 1869 1222 1958 1485 
L 2656 3430 
L 3264 3430 
L 1786 -474 
Q 1606 -960 1321 -1248 
Q 1037 -1536 538 -1536 
Q 384 -1536 269 -1520 
Q 154 -1504 70 -1485 
L 70 -1037 
Q 141 -1050 240 -1062 
Q 339 -1075 448 -1075 
Q 742 -1075 924 -908 
Q 1107 -742 1210 -467 
L 1389 -13 
L 6 3430 
z
" transform="scale(0.015625)"/>
       </defs>
       <use xlink:href="#NotoSans-Regular-30"/>
       <use xlink:href="#NotoSans-Regular-44" transform="translate(90.703125 0)"/>
       <use xlink:href="#NotoSans-Regular-5c" transform="translate(146.796875 0)"/>
      </g>
     </g>
    </g>
    <g id="xtick_6">
     <g id="line2d_6"/>
     <g id="text_6">
      <!-- Jun -->
      <g transform="translate(284.175544 42.718) scale(0.1 -0.1)">
       <defs>
        <path id="NotoSans-Regular-58" d="M 3411 3430 
L 3411 0 
L 2950 0 
L 2867 454 
L 2842 454 
Q 2675 186 2380 61 
Q 2086 -64 1754 -64 
Q 1133 -64 819 233 
Q 506 531 506 1184 
L 506 3430 
L 1075 3430 
L 1075 1222 
Q 1075 403 1837 403 
Q 2406 403 2627 723 
Q 2848 1043 2848 1645 
L 2848 3430 
L 3411 3430 
z
" transform="scale(0.015625)"/>
       </defs>
       <use xlink:href="#NotoSans-Regular-2d"/>
       <use xlink:href="#NotoSans-Regular-58" transform="translate(27.296875 0)"/>
       <use xlink:href="#NotoSans-Regular-51" transform="translate(89.09375 0)"/>
      </g>
     </g>
    </g>
    <g id="xtick_7">
     <g id="line2d_7"/>
     <g id="text_7">
      <!-- Jul -->
      <g transform="translate(347.054907 42.718) scale(0.1 -0.1)">
       <defs>
        <path id="NotoSans-Regular-4f" d="M 1107 0 
L 544 0 
L 544 4864 
L 1107 4864 
L 1107 0 
z
" transform="scale(0.015625)"/>
       </defs>
       <use xlink:href="#NotoSans-Regular-2d"/>
       <use xlink:href="#NotoSans-Regular-58" transform="translate(27.296875 0)"/>
       <use xlink:href="#NotoSans-Regular-4f" transform="translate(89.09375 0)"/>
      </g>
     </g>
    </g>
    <g id="xtick_8">
     <g id="line2d_8"/>
     <g id="text_8">
      <!-- Aug -->
      <g transform="translate(392.302773 42.718) scale(0.1 -0.1)">
       <defs>
        <path id="NotoSans-Regular-4a" d="M 1760 3494 
Q 2099 3494 2371 3366 
Q 2643 3238 2835 2976 
L 2867 2976 
L 2944 3430 
L 3392 3430 
L 3392 -58 
Q 3392 -794 3017 -1165 
Q 2643 -1536 1856 -1536 
Q 1101 -1536 621 -1318 
L 621 -800 
Q 1126 -1069 1888 -1069 
Q 2330 -1069 2582 -809 
Q 2835 -550 2835 -102 
L 2835 32 
Q 2835 109 2841 253 
Q 2848 397 2854 454 
L 2829 454 
Q 2483 -64 1766 -64 
Q 1101 -64 726 403 
Q 352 870 352 1709 
Q 352 2528 726 3011 
Q 1101 3494 1760 3494 
z
M 1837 3021 
Q 1408 3021 1171 2678 
Q 934 2336 934 1702 
Q 934 1069 1168 733 
Q 1402 397 1850 397 
Q 2368 397 2605 675 
Q 2842 954 2842 1574 
L 2842 1709 
Q 2842 2413 2598 2717 
Q 2355 3021 1837 3021 
z
" transform="scale(0.015625)"/>
       </defs>
       <use xlink:href="#NotoSans-Regular-24"/>
       <use xlink:href="#NotoSans-Regular-58" transform="translate(63.90625 0)"/>
       <use xlink:href="#NotoSans-Regular-4a" transform="translate(125.703125 0)"/>
      </g>
     </g>
    </g>
    <g id="xtick_9">
     <g id="line2d_9"/>
     <g id="text_9">
      <!-- Sep -->
      <g transform="translate(454.101667 42.718) scale(0.1 -0.1)">
       <defs>
        <path id="NotoSans-Regular-36" d="M 3213 1222 
Q 3213 614 2771 275 
Q 2330 -64 1581 -64 
Q 1197 -64 870 -6 
Q 544 51 326 154 
L 326 704 
Q 557 602 899 518 
Q 1242 435 1606 435 
Q 2118 435 2377 633 
Q 2637 832 2637 1171 
Q 2637 1395 2541 1548 
Q 2445 1702 2211 1833 
Q 1978 1965 1562 2112 
Q 979 2323 681 2630 
Q 384 2938 384 3469 
Q 384 3834 569 4093 
Q 755 4352 1084 4493 
Q 1414 4634 1843 4634 
Q 2221 4634 2534 4563 
Q 2848 4493 3104 4378 
L 2925 3885 
Q 2688 3987 2409 4057 
Q 2131 4128 1830 4128 
Q 1402 4128 1184 3945 
Q 966 3763 966 3462 
Q 966 3232 1062 3078 
Q 1158 2925 1376 2803 
Q 1594 2682 1965 2541 
Q 2368 2394 2646 2224 
Q 2925 2054 3069 1817 
Q 3213 1581 3213 1222 
z
" transform="scale(0.015625)"/>
       </defs>
       <use xlink:href="#NotoSans-Regular-36"/>
       <use xlink:href="#NotoSans-Regular-48" transform="translate(54.90625 0)"/>
       <use xlink:href="#NotoSans-Regular-53" transform="translate(111.3125 0)"/>
      </g>
     </g>
    </g>
    <g id="xtick_10">
     <g id="line2d_10"/>
     <g id="text_10">
      <!-- Oct -->
      <g transform="translate(503.496408 42.718) scale(0.1 -0.1)">
       <defs>
        <path id="NotoSans-Regular-32" d="M 4608 2291 
Q 4608 1581 4368 1053 
Q 4128 525 3661 230 
Q 3194 -64 2502 -64 
Q 1792 -64 1321 230 
Q 851 525 620 1056 
Q 390 1587 390 2298 
Q 390 3002 620 3526 
Q 851 4051 1321 4345 
Q 1792 4640 2509 4640 
Q 3194 4640 3661 4349 
Q 4128 4058 4368 3530 
Q 4608 3002 4608 2291 
z
M 998 2291 
Q 998 1427 1363 931 
Q 1728 435 2502 435 
Q 3283 435 3641 931 
Q 4000 1427 4000 2291 
Q 4000 3155 3641 3644 
Q 3283 4134 2509 4134 
Q 1734 4134 1366 3644 
Q 998 3155 998 2291 
z
" transform="scale(0.015625)"/>
        <path id="NotoSans-Regular-46" d="M 1920 -64 
Q 1466 -64 1110 121 
Q 755 307 553 697 
Q 352 1088 352 1696 
Q 352 2330 563 2726 
Q 774 3123 1136 3308 
Q 1498 3494 1958 3494 
Q 2221 3494 2464 3440 
Q 2707 3386 2861 3309 
L 2688 2842 
Q 2534 2899 2329 2950 
Q 2125 3002 1946 3002 
Q 934 3002 934 1702 
Q 934 1082 1180 752 
Q 1427 422 1914 422 
Q 2195 422 2409 480 
Q 2624 538 2803 621 
L 2803 122 
Q 2630 32 2422 -16 
Q 2214 -64 1920 -64 
z
" transform="scale(0.015625)"/>
        <path id="NotoSans-Regular-57" d="M 1690 397 
Q 1818 397 1952 419 
Q 2086 442 2170 467 
L 2170 38 
Q 2080 -6 1913 -35 
Q 1747 -64 1594 -64 
Q 1325 -64 1097 29 
Q 870 122 729 352 
Q 589 582 589 998 
L 589 2995 
L 102 2995 
L 102 3264 
L 595 3488 
L 819 4218 
L 1152 4218 
L 1152 3430 
L 2144 3430 
L 2144 2995 
L 1152 2995 
L 1152 1011 
Q 1152 698 1302 547 
Q 1453 397 1690 397 
z
" transform="scale(0.015625)"/>
       </defs>
       <use xlink:href="#NotoSans-Regular-32"/>
       <use xlink:href="#NotoSans-Regular-46" transform="translate(78.09375 0)"/>
       <use xlink:href="#NotoSans-Regular-57" transform="translate(126.09375 0)"/>
      </g>
     </g>
    </g>
    <g id="xtick_11">
     <g id="line2d_11"/>
     <g id="text_11">
      <!-- Nov -->
      <g transform="translate(551.20443 42.718) scale(0.1 -0.1)">
       <defs>
        <path id="NotoSans-Regular-31" d="M 4243 0 
L 3571 0 
L 1126 3795 
L 1101 3795 
Q 1114 3571 1133 3238 
Q 1152 2906 1152 2554 
L 1152 0 
L 621 0 
L 621 4570 
L 1286 4570 
L 3725 787 
L 3750 787 
Q 3744 890 3734 1094 
Q 3725 1299 3715 1542 
Q 3706 1786 3706 1990 
L 3706 4570 
L 4243 4570 
L 4243 0 
z
" transform="scale(0.015625)"/>
        <path id="NotoSans-Regular-52" d="M 3526 1722 
Q 3526 870 3094 403 
Q 2662 -64 1926 -64 
Q 1472 -64 1117 144 
Q 762 352 557 752 
Q 352 1152 352 1722 
Q 352 2573 781 3033 
Q 1210 3494 1946 3494 
Q 2413 3494 2768 3286 
Q 3123 3078 3324 2684 
Q 3526 2291 3526 1722 
z
M 934 1722 
Q 934 1114 1174 758 
Q 1414 403 1939 403 
Q 2458 403 2701 758 
Q 2944 1114 2944 1722 
Q 2944 2330 2701 2675 
Q 2458 3021 1933 3021 
Q 1408 3021 1171 2675 
Q 934 2330 934 1722 
z
" transform="scale(0.015625)"/>
        <path id="NotoSans-Regular-59" d="M 1299 0 
L 0 3430 
L 602 3430 
L 1331 1408 
Q 1382 1267 1440 1094 
Q 1498 922 1542 765 
Q 1587 608 1606 499 
L 1632 499 
Q 1658 608 1706 768 
Q 1754 928 1814 1101 
Q 1875 1274 1920 1408 
L 2650 3430 
L 3251 3430 
L 1946 0 
L 1299 0 
z
" transform="scale(0.015625)"/>
       </defs>
       <use xlink:href="#NotoSans-Regular-31"/>
       <use xlink:href="#NotoSans-Regular-52" transform="translate(76 0)"/>
       <use xlink:href="#NotoSans-Regular-59" transform="translate(134.5 0)"/>
      </g>
     </g>
    </g>
    <g id="xtick_12">
     <g id="line2d_12"/>
     <g id="text_12">
      <!-- Dec -->
      <g transform="translate(612.678324 42.718) scale(0.1 -0.1)">
       <defs>
        <path id="NotoSans-Regular-27" d="M 4282 2330 
Q 4282 1171 3651 585 
Q 3021 0 1894 0 
L 621 0 
L 621 4570 
L 2029 4570 
Q 2720 4570 3225 4314 
Q 3731 4058 4006 3562 
Q 4282 3066 4282 2330 
z
M 3674 2310 
Q 3674 3226 3222 3651 
Q 2771 4077 1946 4077 
L 1197 4077 
L 1197 493 
L 1818 493 
Q 3674 493 3674 2310 
z
" transform="scale(0.015625)"/>
       </defs>
       <use xlink:href="#NotoSans-Regular-27"/>
       <use xlink:href="#NotoSans-Regular-48" transform="translate(73 0)"/>
       <use xlink:href="#NotoSans-Regular-46" transform="translate(129.40625 0)"/>
      </g>
     </g>
    </g>
   </g>
   <g id="matplotlib.axis_2">
    <g id="ytick_1">
     <g id="line2d_13"/>
     <g id="text_13">
      <!-- Mon -->
      <g transform="translate(7.2 75.206871) scale(0.1 -0.1)">
       <use xlink:href="#NotoSans-Regular-30"/>
       <use xlink:href="#NotoSans-Regular-52" transform="translate(90.703125 0)"/>
       <use xlink:href="#NotoSans-Regular-51" transform="translate(151.203125 0)"/>
      </g>
     </g>
    </g>
    <g id="ytick_2">
     <g id="line2d_14"/>
     <g id="text_14">
      <!-- Wed -->
      <g transform="translate(7.609375 99.638616) scale(0.1 -0.1)">
       <defs>
        <path id="NotoSans-Regular-3a" d="M 5869 4570 
L 4653 0 
L 4070 0 
L 3181 2995 
Q 3130 3181 3078 3366 
Q 3027 3552 2995 3696 
Q 2963 3840 2950 3898 
Q 2944 3814 2883 3542 
Q 2822 3270 2733 2976 
L 1869 0 
L 1286 0 
L 77 4570 
L 678 4570 
L 1389 1779 
Q 1466 1485 1520 1209 
Q 1574 934 1606 691 
Q 1638 941 1702 1235 
Q 1766 1530 1850 1811 
L 2656 4570 
L 3251 4570 
L 4090 1792 
Q 4179 1498 4243 1206 
Q 4307 915 4339 691 
Q 4371 928 4428 1206 
Q 4486 1485 4563 1786 
L 5267 4570 
L 5869 4570 
z
" transform="scale(0.015625)"/>
        <path id="NotoSans-Regular-47" d="M 1760 -64 
Q 1120 -64 736 381 
Q 352 826 352 1709 
Q 352 2592 739 3043 
Q 1126 3494 1766 3494 
Q 2163 3494 2416 3347 
Q 2669 3200 2829 2989 
L 2867 2989 
Q 2861 3072 2845 3235 
Q 2829 3398 2829 3494 
L 2829 4864 
L 3392 4864 
L 3392 0 
L 2938 0 
L 2854 461 
L 2829 461 
Q 2675 243 2419 89 
Q 2163 -64 1760 -64 
z
M 1850 403 
Q 2394 403 2614 700 
Q 2835 998 2835 1600 
L 2835 1702 
Q 2835 2342 2624 2684 
Q 2413 3027 1843 3027 
Q 1389 3027 1161 2665 
Q 934 2304 934 1696 
Q 934 1082 1161 742 
Q 1389 403 1850 403 
z
" transform="scale(0.015625)"/>
       </defs>
       <use xlink:href="#NotoSans-Regular-3a"/>
       <use xlink:href="#NotoSans-Regular-48" transform="translate(91 0)"/>
       <use xlink:href="#NotoSans-Regular-47" transform="translate(147.40625 0)"/>
      </g>
     </g>
    </g>
    <g id="ytick_3">
     <g id="line2d_15"/>
     <g id="text_15">
      <!-- Fri -->
      <g transform="translate(16.6 124.070362) scale(0.1 -0.1)">
       <defs>
        <path id="NotoSans-Regular-4c" d="M 832 4717 
Q 960 4717 1059 4630 
Q 1158 4544 1158 4358 
Q 1158 4179 1059 4089 
Q 960 4000 832 4000 
Q 691 4000 595 4089 
Q 499 4179 499 4358 
Q 499 4544 595 4630 
Q 691 4717 832 4717 
z
M 1107 3430 
L 1107 0 
L 544 0 
L 544 3430 
L 1107 3430 
z
" transform="scale(0.015625)"/>
       </defs>
       <use xlink:href="#NotoSans-Regular-29"/>
       <use xlink:href="#NotoSans-Regular-55" transform="translate(51.90625 0)"/>
       <use xlink:href="#NotoSans-Regular-4c" transform="translate(93.203125 0)"/>
      </g>
     </g>
    </g>
   </g>
   <g id="text_16">
    <!-- Less -->
    <g transform="translate(599.945637 151.960356) scale(0.09 -0.09)">
     <defs>
      <path id="NotoSans-Regular-2f" d="M 621 0 
L 621 4570 
L 1197 4570 
L 1197 512 
L 3194 512 
L 3194 0 
L 621 0 
z
" transform="scale(0.015625)"/>
      <path id="NotoSans-Regular-56" d="M 2778 947 
Q 2778 448 2406 192 
Q 2035 -64 1408 -64 
Q 1050 -64 790 -6 
Q 531 51 333 154 
L 333 666 
Q 538 563 829 476 
Q 1120 390 1421 390 
Q 1850 390 2042 528 
Q 2234 666 2234 896 
Q 2234 1024 2163 1126 
Q 2093 1229 1910 1331 
Q 1728 1434 1389 1562 
Q 1056 1690 819 1818 
Q 582 1946 454 2125 
Q 326 2304 326 2586 
Q 326 3021 681 3257 
Q 1037 3494 1613 3494 
Q 1926 3494 2198 3433 
Q 2470 3373 2707 3264 
L 2515 2816 
Q 2298 2906 2061 2970 
Q 1824 3034 1574 3034 
Q 1229 3034 1046 2922 
Q 864 2810 864 2618 
Q 864 2477 947 2377 
Q 1030 2278 1225 2185 
Q 1421 2093 1747 1965 
Q 2074 1843 2304 1715 
Q 2534 1587 2656 1404 
Q 2778 1222 2778 947 
z
" transform="scale(0.015625)"/>
     </defs>
     <use xlink:href="#NotoSans-Regular-2f"/>
     <use xlink:href="#NotoSans-Regular-48" transform="translate(52.40625 0)"/>
     <use xlink:href="#NotoSans-Regular-56" transform="translate(108.8125 0)"/>
     <use xlink:href="#NotoSans-Regular-56" transform="translate(156.71875 0)"/>
    </g>
   </g>
   <g id="text_17">
    <!-- More -->
    <g transform="translate(685.814749 151.960356) scale(0.09 -0.09)">
     <use xlink:href="#NotoSans-Regular-30"/>
     <use xlink:href="#NotoSans-Regular-52" transform="translate(90.703125 0)"/>
     <use xlink:href="#NotoSans-Regular-55" transform="translate(151.203125 0)"/>
     <use xlink:href="#NotoSans-Regular-48" transform="translate(190.5 0)"/>
    </g>
   </g>
   <g id="text_18">
    <!-- Daily insurance claim counts, 2025 -->
    <g transform="translate(260.385875 20.028) scale(0.12 -0.12)">
     <defs>
      <path id="NotoSans-Regular-3" transform="scale(0.015625)"/>
      <path id="NotoSans-Regular-50" d="M 4307 3494 
Q 4890 3494 5178 3196 
Q 5466 2899 5466 2234 
L 5466 0 
L 4909 0 
L 4909 2208 
Q 4909 3021 4211 3021 
Q 3712 3021 3497 2733 
Q 3283 2445 3283 1894 
L 3283 0 
L 2726 0 
L 2726 2208 
Q 2726 3021 2022 3021 
Q 1504 3021 1305 2701 
Q 1107 2381 1107 1779 
L 1107 0 
L 544 0 
L 544 3430 
L 998 3430 
L 1082 2963 
L 1114 2963 
Q 1274 3232 1546 3363 
Q 1818 3494 2125 3494 
Q 2931 3494 3174 2918 
L 3206 2918 
Q 3379 3213 3676 3353 
Q 3974 3494 4307 3494 
z
" transform="scale(0.015625)"/>
      <path id="NotoSans-Regular-f" d="M 1229 672 
Q 1146 333 989 -73 
Q 832 -480 678 -826 
L 262 -826 
Q 352 -461 445 -25 
Q 538 410 582 742 
L 1184 742 
L 1229 672 
z
" transform="scale(0.015625)"/>
      <path id="NotoSans-Regular-15" d="M 3328 0 
L 307 0 
L 307 467 
L 1504 1677 
Q 1850 2022 2086 2291 
Q 2323 2560 2444 2819 
Q 2566 3078 2566 3386 
Q 2566 3763 2342 3958 
Q 2118 4154 1760 4154 
Q 1427 4154 1174 4038 
Q 922 3923 659 3718 
L 358 4096 
Q 627 4320 976 4477 
Q 1325 4634 1760 4634 
Q 2400 4634 2771 4310 
Q 3142 3987 3142 3418 
Q 3142 3059 2995 2745 
Q 2848 2432 2585 2128 
Q 2323 1824 1971 1478 
L 1018 538 
L 1018 512 
L 3328 512 
L 3328 0 
z
" transform="scale(0.015625)"/>
      <path id="NotoSans-Regular-13" d="M 3347 2291 
Q 3347 1555 3193 1027 
Q 3040 499 2707 217 
Q 2374 -64 1824 -64 
Q 1050 -64 682 560 
Q 314 1184 314 2291 
Q 314 3034 464 3558 
Q 614 4083 947 4361 
Q 1280 4640 1824 4640 
Q 2592 4640 2969 4022 
Q 3347 3405 3347 2291 
z
M 877 2291 
Q 877 1350 1091 883 
Q 1306 416 1824 416 
Q 2336 416 2557 880 
Q 2778 1344 2778 2291 
Q 2778 3226 2557 3693 
Q 2336 4160 1824 4160 
Q 1306 4160 1091 3693 
Q 877 3226 877 2291 
z
" transform="scale(0.015625)"/>
      <path id="NotoSans-Regular-18" d="M 1760 2803 
Q 2464 2803 2880 2451 
Q 3296 2099 3296 1459 
Q 3296 749 2845 342 
Q 2394 -64 1587 -64 
Q 1235 -64 924 0 
Q 614 64 403 186 
L 403 717 
Q 634 576 963 496 
Q 1293 416 1594 416 
Q 2099 416 2409 656 
Q 2720 896 2720 1402 
Q 2720 1850 2445 2090 
Q 2170 2330 1574 2330 
Q 1395 2330 1164 2298 
Q 934 2266 794 2234 
L 512 2413 
L 685 4570 
L 2976 4570 
L 2976 4058 
L 1165 4058 
L 1056 2733 
Q 1165 2752 1350 2777 
Q 1536 2803 1760 2803 
z
" transform="scale(0.015625)"/>
     </defs>
     <use xlink:href="#NotoSans-Regular-27"/>
     <use xlink:href="#NotoSans-Regular-44" transform="translate(73 0)"/>
     <use xlink:href="#NotoSans-Regular-4c" transform="translate(129.09375 0)"/>
     <use xlink:href="#NotoSans-Regular-4f" transform="translate(154.890625 0)"/>
     <use xlink:href="#NotoSans-Regular-5c" transform="translate(180.6875 0)"/>
     <use xlink:href="#NotoSans-Regular-3" transform="translate(231.6875 0)"/>
     <use xlink:href="#NotoSans-Regular-4c" transform="translate(257.6875 0)"/>
     <use xlink:href="#NotoSans-Regular-51" transform="translate(283.484375 0)"/>
     <use xlink:href="#NotoSans-Regular-56" transform="translate(345.28125 0)"/>
     <use xlink:href="#NotoSans-Regular-58" transform="translate(393.1875 0)"/>
     <use xlink:href="#NotoSans-Regular-55" transform="translate(454.984375 0)"/>
     <use xlink:href="#NotoSans-Regular-44" transform="translate(494.28125 0)"/>
     <use xlink:href="#NotoSans-Regular-51" transform="translate(550.375 0)"/>
     <use xlink:href="#NotoSans-Regular-46" transform="translate(612.171875 0)"/>
     <use xlink:href="#NotoSans-Regular-48" transform="translate(660.171875 0)"/>
     <use xlink:href="#NotoSans-Regular-3" transform="translate(716.578125 0)"/>
     <use xlink:href="#NotoSans-Regular-46" transform="translate(742.578125 0)"/>
     <use xlink:href="#NotoSans-Regular-4f" transform="translate(790.578125 0)"/>
     <use xlink:href="#NotoSans-Regular-44" transform="translate(816.375 0)"/>
     <use xlink:href="#NotoSans-Regular-4c" transform="translate(872.46875 0)"/>
     <use xlink:href="#NotoSans-Regular-50" transform="translate(898.265625 0)"/>
     <use xlink:href="#NotoSans-Regular-3" transform="translate(991.765625 0)"/>
     <use xlink:href="#NotoSans-Regular-46" transform="translate(1017.765625 0)"/>
     <use xlink:href="#NotoSans-Regular-52" transform="translate(1065.765625 0)"/>
     <use xlink:href="#NotoSans-Regular-58" transform="translate(1126.265625 0)"/>
     <use xlink:href="#NotoSans-Regular-51" transform="translate(1188.0625 0)"/>
     <use xlink:href="#NotoSans-Regular-57" transform="translate(1249.859375 0)"/>
     <use xlink:href="#NotoSans-Regular-56" transform="translate(1285.953125 0)"/>
     <use xlink:href="#NotoSans-Regular-f" transform="translate(1333.859375 0)"/>
     <use xlink:href="#NotoSans-Regular-3" transform="translate(1360.65625 0)"/>
     <use xlink:href="#NotoSans-Regular-15" transform="translate(1386.65625 0)"/>
     <use xlink:href="#NotoSans-Regular-13" transform="translate(1443.859375 0)"/>
     <use xlink:href="#NotoSans-Regular-15" transform="translate(1501.0625 0)"/>
     <use xlink:href="#NotoSans-Regular-18" transform="translate(1558.265625 0)"/>
    </g>
   </g>
  </g>
 </g>
 <defs>
  <clipPath id="p1203cbb4bd">
   <rect x="32" y="49.148" width="650.628" height="106.756104"/>
  </clipPath>
 </defs>
</svg>
